<svg width="30" height="30" viewBox="0 0 30 30" fill="none" xmlns="http://www.w3.org/2000/svg">
<g id="Analytics Pie">
<path id="Vector" d="M16.9043 1.66699V13.0956H28.3329C28.3329 10.0645 27.1288 7.15762 24.9855 5.01434C22.8422 2.87107 19.9353 1.66699 16.9043 1.66699V1.66699Z" stroke="#FFB74D" stroke-width="2" stroke-linecap="round" stroke-linejoin="round"/>
<path id="Vector_2" d="M13.0946 5.47656C10.8342 5.47656 8.62464 6.14684 6.74522 7.40262C4.8658 8.65841 3.40097 10.4433 2.53597 12.5316C1.67097 14.6199 1.44464 16.9178 1.88562 19.1347C2.32659 21.3517 3.41506 23.388 5.01337 24.9864C6.61169 26.5847 8.64806 27.6731 10.865 28.1141C13.0819 28.5551 15.3798 28.3288 17.4681 27.4638C19.5564 26.5988 21.3413 25.1339 22.5971 23.2545C23.8529 21.3751 24.5232 19.1655 24.5232 16.9051H13.0946V5.47656Z" stroke="#FFB74D" stroke-width="2" stroke-linecap="round" stroke-linejoin="round"/>
</g>
</svg>
