<svg width="24" height="28" viewBox="0 0 24 28" fill="none" xmlns="http://www.w3.org/2000/svg">
<g id="Bookmark">
<path id="Vector" d="M17.0909 4.65703C16.6216 4.65703 16.1716 4.84345 15.8397 5.17528C15.5079 5.50711 15.3215 5.95718 15.3215 6.42646V26.0672C15.3214 26.225 15.2791 26.3799 15.199 26.5159C15.1189 26.6519 15.0038 26.764 14.8658 26.8405C14.7277 26.9171 14.5717 26.9553 14.414 26.9512C14.2562 26.9471 14.1024 26.9009 13.9684 26.8174L8.24374 23.2361L2.51904 26.8139C2.38539 26.8972 2.23189 26.9434 2.07441 26.9476C1.91693 26.9519 1.76117 26.914 1.62325 26.8378C1.48532 26.7617 1.37022 26.6502 1.28984 26.5147C1.20946 26.3792 1.16671 26.2247 1.16602 26.0672V6.42646C1.16602 5.01861 1.72528 3.66843 2.72078 2.67293C3.71628 1.67743 5.06646 1.11816 6.47431 1.11816H17.0909C18.4987 1.11816 19.8489 1.67743 20.8444 2.67293C21.8399 3.66843 22.3992 5.01861 22.3992 6.42646V10.85C22.3992 11.0847 22.306 11.3097 22.1401 11.4756C21.9742 11.6415 21.7491 11.7348 21.5145 11.7348H15.3215" stroke="#FFB74D" stroke-width="2" stroke-linecap="round" stroke-linejoin="round"/>
</g>
</svg>
