<svg width="41" height="36" viewBox="0 0 41 36" fill="none" xmlns="http://www.w3.org/2000/svg">
<g id="Error icon">
<path id="Polygon 3" d="M14.6071 5.98038C16.5615 2.59527 17.5387 0.902717 18.8215 0.347603C19.8925 -0.115868 21.1075 -0.115868 22.1785 0.347603C23.4613 0.902717 24.4385 2.59527 26.3929 5.98037L37.712 25.5856C39.6664 28.9707 40.6436 30.6633 40.4829 32.0518C40.3488 33.211 39.7413 34.2633 38.8044 34.959C37.6823 35.7924 35.7279 35.7924 31.8191 35.7924H9.1809C5.27211 35.7924 3.31772 35.7924 2.19558 34.959C1.25869 34.2633 0.6512 33.211 0.517069 32.0518C0.356415 30.6633 1.33361 28.9707 3.288 25.5856L14.6071 5.98038Z" fill="#FFF380"/>
<path id="!" d="M22.0481 13.2075L21.8211 23.7529H19.4891L19.2415 13.2075H22.0481ZM19.0558 26.704C19.0455 25.8372 19.7781 25.1253 20.6654 25.1149C21.5219 25.1253 22.2545 25.8372 22.2545 26.704C22.2545 27.5914 21.5219 28.3136 20.6654 28.3136C19.7781 28.3136 19.0455 27.5914 19.0558 26.704Z" fill="#434343"/>
</g>
</svg>
