<svg width="16" height="16" viewBox="0 0 16 16" fill="none" xmlns="http://www.w3.org/2000/svg">
<g clip-path="url(#clip0_1_15179)">
<path d="M14.325 2.00957C12.5188 0.490822 9.72813 0.718947 8 2.47832C6.27188 0.718947 3.48125 0.487697 1.675 2.00957C-0.674996 3.9877 -0.331246 7.2127 1.34375 8.92207L6.825 14.5064C7.1375 14.8252 7.55625 15.0033 8 15.0033C8.44688 15.0033 8.8625 14.8283 9.175 14.5096L14.6563 8.9252C16.3281 7.21582 16.6781 3.99082 14.325 2.00957ZM13.5875 7.86895L8.10625 13.4533C8.03125 13.5283 7.96875 13.5283 7.89375 13.4533L2.4125 7.86895C1.27188 6.70645 1.04063 4.50645 2.64063 3.15957C3.85625 2.1377 5.73125 2.29082 6.90625 3.4877L8 4.60332L9.09375 3.4877C10.275 2.28457 12.15 2.1377 13.3594 3.15645C14.9563 4.50332 14.7188 6.71582 13.5875 7.86895Z" fill="#BDBDBD"/>
</g>
<defs>
<clipPath id="clip0_1_15179">
<rect width="16" height="16" fill="white"/>
</clipPath>
</defs>
</svg>
