<svg width="16" height="16" viewBox="0 0 16 16" fill="none" xmlns="http://www.w3.org/2000/svg">
<g id="fa-regular:heart" clip-path="url(#clip0_2475_1698)">
<path id="Vector" d="M14.325 2.00908C12.5188 0.490333 9.72813 0.718458 8 2.47783C6.27188 0.718458 3.48125 0.487208 1.675 2.00908C-0.674996 3.98721 -0.331246 7.21221 1.34375 8.92158L6.825 14.506C7.1375 14.8247 7.55625 15.0028 8 15.0028C8.44688 15.0028 8.8625 14.8278 9.175 14.5091L14.6563 8.92471C16.3281 7.21533 16.6781 3.99033 14.325 2.00908ZM13.5875 7.86846L8.10625 13.4528C8.03125 13.5278 7.96875 13.5278 7.89375 13.4528L2.4125 7.86846C1.27188 6.70596 1.04063 4.50596 2.64063 3.15908C3.85625 2.13721 5.73125 2.29033 6.90625 3.48721L8 4.60283L9.09375 3.48721C10.275 2.28408 12.15 2.13721 13.3594 3.15596C14.9563 4.50283 14.7188 6.71533 13.5875 7.86846Z" fill="#FFB74D"/>
</g>
<defs>
<clipPath id="clip0_2475_1698">
<rect width="16" height="16" fill="white"/>
</clipPath>
</defs>
</svg>
