<svg width="58" height="58" viewBox="0 0 58 58" fill="none" xmlns="http://www.w3.org/2000/svg">
<g id="Frame 39811">
<path id="Vector" d="M48.8125 29.4062C48.8125 29.63 48.7236 29.8446 48.5654 30.0029C48.4071 30.1611 48.1925 30.25 47.9688 30.25H30.25V47.9688C30.25 48.1925 30.1611 48.4071 30.0029 48.5654C29.8446 48.7236 29.63 48.8125 29.4062 48.8125C29.1825 48.8125 28.9679 48.7236 28.8096 48.5654C28.6514 48.4071 28.5625 48.1925 28.5625 47.9688V30.25H10.8438C10.62 30.25 10.4054 30.1611 10.2471 30.0029C10.0889 29.8446 10 29.63 10 29.4062C10 29.1825 10.0889 28.9679 10.2471 28.8096C10.4054 28.6514 10.62 28.5625 10.8438 28.5625H28.5625V10.8438C28.5625 10.62 28.6514 10.4054 28.8096 10.2471C28.9679 10.0889 29.1825 10 29.4062 10C29.63 10 29.8446 10.0889 30.0029 10.2471C30.1611 10.4054 30.25 10.62 30.25 10.8438V28.5625H47.9688C48.1925 28.5625 48.4071 28.6514 48.5654 28.8096C48.7236 28.9679 48.8125 29.1825 48.8125 29.4062Z" fill="#FFB74D"/>
</g>
</svg>
