<svg width="20" height="20" viewBox="0 0 20 20" fill="none" xmlns="http://www.w3.org/2000/svg">
<g id="gg:info">
<g id="Group">
<path id="Vector" d="M9.16699 9.15047C9.16699 8.92945 9.25479 8.71749 9.41107 8.56121C9.56735 8.40493 9.77931 8.31713 10.0003 8.31713C10.2213 8.31713 10.4333 8.40493 10.5896 8.56121C10.7459 8.71749 10.8337 8.92945 10.8337 9.15047V14.1505C10.8337 14.3715 10.7459 14.5834 10.5896 14.7397C10.4333 14.896 10.2213 14.9838 10.0003 14.9838C9.77931 14.9838 9.56735 14.896 9.41107 14.7397C9.25479 14.5834 9.16699 14.3715 9.16699 14.1505V9.15047ZM10.0003 5.04297C9.77931 5.04297 9.56735 5.13077 9.41107 5.28705C9.25479 5.44333 9.16699 5.65529 9.16699 5.8763C9.16699 6.09732 9.25479 6.30928 9.41107 6.46556C9.56735 6.62184 9.77931 6.70964 10.0003 6.70964C10.2213 6.70964 10.4333 6.62184 10.5896 6.46556C10.7459 6.30928 10.8337 6.09732 10.8337 5.8763C10.8337 5.65529 10.7459 5.44333 10.5896 5.28705C10.4333 5.13077 10.2213 5.04297 10.0003 5.04297Z" fill="#BDBDBD"/>
<path id="Vector_2" fill-rule="evenodd" clip-rule="evenodd" d="M10.0003 1.66699C5.39783 1.66699 1.66699 5.39783 1.66699 10.0003C1.66699 14.6028 5.39783 18.3337 10.0003 18.3337C14.6028 18.3337 18.3337 14.6028 18.3337 10.0003C18.3337 5.39783 14.6028 1.66699 10.0003 1.66699ZM3.33366 10.0003C3.33366 11.7684 4.03604 13.4641 5.28628 14.7144C6.53652 15.9646 8.23222 16.667 10.0003 16.667C11.7684 16.667 13.4641 15.9646 14.7144 14.7144C15.9646 13.4641 16.667 11.7684 16.667 10.0003C16.667 8.23222 15.9646 6.53652 14.7144 5.28628C13.4641 4.03604 11.7684 3.33366 10.0003 3.33366C8.23222 3.33366 6.53652 4.03604 5.28628 5.28628C4.03604 6.53652 3.33366 8.23222 3.33366 10.0003Z" fill="#BDBDBD"/>
</g>
</g>
</svg>
