<svg width="12" height="14" viewBox="0 0 12 14" fill="none" xmlns="http://www.w3.org/2000/svg">
<g id="Google Icon">
<g id="Vector">
<path id="Vector_2" d="M6.12256 5.88477V8.25873H9.42158C9.27671 9.02219 8.84199 9.66864 8.19 10.1033L10.1794 11.647C11.3386 10.577 12.0073 9.00552 12.0073 7.13868C12.0073 6.70402 11.9683 6.28603 11.8958 5.88483L6.12256 5.88477Z" fill="#4285F4"/>
<path id="Vector_3" d="M2.68733 8.1665L2.23863 8.50997L0.650391 9.74709C1.65904 11.7477 3.72636 13.1297 6.12259 13.1297C7.77764 13.1297 9.16521 12.5836 10.1795 11.6474L8.19003 10.1038C7.6439 10.4715 6.94731 10.6945 6.12259 10.6945C4.52881 10.6945 3.17469 9.61896 2.68983 8.17004L2.68733 8.1665Z" fill="#34A853"/>
<path id="Vector_4" d="M0.650205 4.25244C0.232276 5.07716 -0.00732422 6.00782 -0.00732422 6.99974C-0.00732422 7.99166 0.232276 8.92231 0.650205 9.74703C0.650205 9.75257 2.68984 8.16439 2.68984 8.16439C2.56724 7.7966 2.49478 7.40653 2.49478 6.99967C2.49478 6.59281 2.56724 6.20275 2.68984 5.83496L0.650205 4.25244Z" fill="#FBBC05"/>
<path id="Vector_5" d="M6.12272 3.31095C7.0255 3.31095 7.82796 3.62301 8.46882 4.22487L10.2242 2.4695C9.15981 1.47758 7.77783 0.870117 6.12272 0.870117C3.72648 0.870117 1.65904 2.24657 0.650391 4.25274L2.68997 5.83538C3.17476 4.38647 4.52894 3.31095 6.12272 3.31095Z" fill="#EA4335"/>
</g>
</g>
</svg>
