<svg width="24" height="24" viewBox="0 0 24 24" fill="none" xmlns="http://www.w3.org/2000/svg">
<g clip-path="url(#clip0_1665_1049)">
<path d="M21.4875 3.01411C18.7781 0.735988 14.5922 1.07818 12 3.71724C9.40782 1.07818 5.22188 0.731301 2.51251 3.01411C-1.01249 5.9813 -0.49687 10.8188 2.01563 13.3829L10.2375 21.7594C10.7063 22.2376 11.3344 22.5047 12 22.5047C12.6703 22.5047 13.2938 22.2422 13.7625 21.7641L21.9844 13.3876C24.4922 10.8235 25.0172 5.98599 21.4875 3.01411ZM20.3813 11.8032L12.1594 20.1797C12.0469 20.2922 11.9531 20.2922 11.8406 20.1797L3.61876 11.8032C1.90782 10.0594 1.56094 6.75943 3.96094 4.73911C5.78438 3.2063 8.59688 3.43599 10.3594 5.2313L12 6.90474L13.6406 5.2313C15.4125 3.42661 18.225 3.2063 20.0391 4.73443C22.4344 6.75474 22.0781 10.0735 20.3813 11.8032Z" fill="#FFB74D"/>
</g>
<defs>
<clipPath id="clip0_1665_1049">
<rect width="24" height="24" fill="white"/>
</clipPath>
</defs>
</svg>
