<svg width="10" height="6" viewBox="0 0 10 6" fill="none" xmlns="http://www.w3.org/2000/svg">
<path id="Vector" d="M0.197889 4.59103L4.63061 0.145118C4.68338 0.092348 4.74055 0.0550569 4.80211 0.0332452C4.86368 0.0110816 4.92964 -2.21633e-07 5 -2.18557e-07C5.07036 -2.15481e-07 5.13632 0.0110816 5.19789 0.0332452C5.25945 0.055057 5.31662 0.0923481 5.36939 0.145119L9.8153 4.59103C9.93843 4.71416 10 4.86807 10 5.05277C10 5.23747 9.93404 5.39578 9.80211 5.5277C9.67018 5.65963 9.51627 5.72559 9.34037 5.72559C9.16447 5.72559 9.01055 5.65963 8.87863 5.5277L5 1.64908L1.12137 5.5277C0.99824 5.65083 0.846614 5.7124 0.66649 5.7124C0.486016 5.7124 0.329815 5.64644 0.197889 5.51451C0.0659626 5.38259 -2.28552e-07 5.22867 -2.20864e-07 5.05277C-2.13175e-07 4.87687 0.0659626 4.72295 0.197889 4.59103Z" fill="#616161"/>
</svg>
