<svg width="10" height="7" viewBox="0 0 10 7" fill="none" xmlns="http://www.w3.org/2000/svg">
<path id="Vector" d="M9.80211 1.86014L5.36939 6.30605C5.31662 6.35882 5.25945 6.39611 5.19789 6.41793C5.13632 6.44009 5.07036 6.45117 5 6.45117C4.92964 6.45117 4.86368 6.44009 4.80211 6.41793C4.74055 6.39611 4.68338 6.35882 4.63061 6.30605L0.184697 1.86014C0.0615655 1.73701 5.80512e-08 1.5831 6.02537e-08 1.3984C6.24562e-08 1.21371 0.0659631 1.05539 0.197889 0.923468C0.329815 0.791542 0.483729 0.725579 0.659631 0.725579C0.835532 0.725579 0.989446 0.791542 1.12137 0.923468L5 4.8021L8.87863 0.923468C9.00176 0.800337 9.15339 0.738771 9.33351 0.738771C9.51398 0.738771 9.67019 0.804734 9.80211 0.93666C9.93404 1.06859 10 1.2225 10 1.3984C10 1.5743 9.93404 1.72822 9.80211 1.86014Z" fill="#616161"/>
</svg>
