<svg width="12" height="12" viewBox="0 0 12 12" fill="none" xmlns="http://www.w3.org/2000/svg">
<g id="Group 40095">
<circle id="Ellipse 493" cx="6" cy="6" r="6" fill="#FFB74D"/>
<path id="Vector" d="M4.94073 8.85202C4.84743 8.75336 4.80078 8.6278 4.80078 8.47534C4.80078 8.32287 4.84743 8.19731 4.94073 8.09865L6.92546 6L4.94073 3.90135C4.84743 3.80269 4.80078 3.67713 4.80078 3.52466C4.80078 3.3722 4.84743 3.24664 4.94073 3.14798C5.03403 3.04933 5.15277 3 5.29696 3C5.44115 3 5.5599 3.04933 5.6532 3.14798L7.99417 5.62332C8.04506 5.67713 8.08119 5.73543 8.10256 5.79821C8.1236 5.86099 8.13411 5.92825 8.13411 6C8.13411 6.07175 8.1236 6.13901 8.10256 6.20179C8.08119 6.26457 8.04506 6.32287 7.99417 6.37668L5.6532 8.85202C5.5599 8.95067 5.44115 9 5.29696 9C5.15277 9 5.03403 8.95067 4.94073 8.85202Z" fill="white"/>
</g>
</svg>
