<svg width="15" height="13" viewBox="0 0 15 13" fill="none" xmlns="http://www.w3.org/2000/svg">
<g id="Error icon">
<path id="Polygon 3" d="M5.43749 2.17211C6.12152 0.942616 6.46354 0.327872 6.91252 0.126251C7.28738 -0.0420837 7.71262 -0.0420837 8.08748 0.126251C8.53646 0.327872 8.87848 0.942616 9.56251 2.1721L13.5242 9.29284C14.2082 10.5223 14.5503 11.1371 14.494 11.6414C14.4471 12.0624 14.2345 12.4446 13.9065 12.6973C13.5138 13 12.8298 13 11.4617 13H3.53832C2.17024 13 1.4862 13 1.09345 12.6973C0.765543 12.4446 0.55292 12.0624 0.505974 11.6414C0.449745 11.1371 0.791764 10.5223 1.4758 9.29284L5.43749 2.17211Z" fill="#FFF380"/>
<path id="!" d="M8.04149 4.79706L7.96204 8.6272H7.14586L7.05918 4.79706H8.04149ZM6.99418 9.69904C6.99057 9.38423 7.24698 9.12564 7.55756 9.1219C7.85731 9.12564 8.11372 9.38423 8.11372 9.69904C8.11372 10.0213 7.85731 10.2837 7.55756 10.2837C7.24698 10.2837 6.99057 10.0213 6.99418 9.69904Z" fill="#434343"/>
</g>
</svg>
