<svg width="13" height="13" viewBox="0 0 13 13" fill="none" xmlns="http://www.w3.org/2000/svg">
<path id="Vector" d="M5.47836 7.6049L4.17336 6.2999C4.06336 6.1899 3.92836 6.1349 3.76836 6.1349C3.60836 6.1349 3.46836 6.1949 3.34836 6.3149C3.23836 6.4249 3.18336 6.5649 3.18336 6.7349C3.18336 6.9049 3.23836 7.0449 3.34836 7.1549L5.05836 8.8649C5.16836 8.9749 5.30836 9.0299 5.47836 9.0299C5.64836 9.0299 5.78836 8.9749 5.89836 8.8649L9.30336 5.4599C9.41336 5.3499 9.46836 5.2149 9.46836 5.0549C9.46836 4.8949 9.40836 4.7549 9.28836 4.6349C9.17836 4.5249 9.03836 4.4699 8.86836 4.4699C8.69836 4.4699 8.55836 4.5249 8.44836 4.6349L5.47836 7.6049ZM6.31836 12.5249C5.48836 12.5249 4.70836 12.3673 3.97836 12.0521C3.24836 11.7373 2.61336 11.3099 2.07336 10.7699C1.53336 10.2299 1.10596 9.5949 0.791159 8.8649C0.475959 8.1349 0.318359 7.3549 0.318359 6.5249C0.318359 5.6949 0.475959 4.9149 0.791159 4.1849C1.10596 3.4549 1.53336 2.8199 2.07336 2.2799C2.61336 1.7399 3.24836 1.3123 3.97836 0.997102C4.70836 0.682302 5.48836 0.524902 6.31836 0.524902C7.14836 0.524902 7.92836 0.682302 8.65836 0.997102C9.38836 1.3123 10.0234 1.7399 10.5634 2.2799C11.1034 2.8199 11.5308 3.4549 11.8456 4.1849C12.1608 4.9149 12.3184 5.6949 12.3184 6.5249C12.3184 7.3549 12.1608 8.1349 11.8456 8.8649C11.5308 9.5949 11.1034 10.2299 10.5634 10.7699C10.0234 11.3099 9.38836 11.7373 8.65836 12.0521C7.92836 12.3673 7.14836 12.5249 6.31836 12.5249Z" fill="#61BA84"/>
</svg>
