<svg width="13" height="13" viewBox="0 0 13 13" fill="none" xmlns="http://www.w3.org/2000/svg">
<path id="Vector" d="M5.47836 7.81999L4.17336 6.51499C4.06336 6.40499 3.92836 6.34999 3.76836 6.34999C3.60836 6.34999 3.46836 6.40999 3.34836 6.52999C3.23836 6.63999 3.18336 6.77999 3.18336 6.94999C3.18336 7.11999 3.23836 7.25999 3.34836 7.36999L5.05836 9.07999C5.16836 9.18999 5.30836 9.24499 5.47836 9.24499C5.64836 9.24499 5.78836 9.18999 5.89836 9.07999L9.30336 5.67499C9.41336 5.56499 9.46836 5.42999 9.46836 5.26999C9.46836 5.10999 9.40836 4.96999 9.28836 4.84999C9.17836 4.73999 9.03836 4.68499 8.86836 4.68499C8.69836 4.68499 8.55836 4.73999 8.44836 4.84999L5.47836 7.81999ZM6.31836 12.74C5.48836 12.74 4.70836 12.5824 3.97836 12.2672C3.24836 11.9524 2.61336 11.525 2.07336 10.985C1.53336 10.445 1.10596 9.80999 0.791159 9.07999C0.475959 8.34999 0.318359 7.56999 0.318359 6.73999C0.318359 5.90999 0.475959 5.12999 0.791159 4.39999C1.10596 3.66999 1.53336 3.03499 2.07336 2.49499C2.61336 1.95499 3.24836 1.52739 3.97836 1.21219C4.70836 0.89739 5.48836 0.73999 6.31836 0.73999C7.14836 0.73999 7.92836 0.89739 8.65836 1.21219C9.38836 1.52739 10.0234 1.95499 10.5634 2.49499C11.1034 3.03499 11.5308 3.66999 11.8456 4.39999C12.1608 5.12999 12.3184 5.90999 12.3184 6.73999C12.3184 7.56999 12.1608 8.34999 11.8456 9.07999C11.5308 9.80999 11.1034 10.445 10.5634 10.985C10.0234 11.525 9.38836 11.9524 8.65836 12.2672C7.92836 12.5824 7.14836 12.74 6.31836 12.74Z" fill="#989898"/>
</svg>
