<svg width="30" height="30" viewBox="0 0 30 30" fill="none" xmlns="http://www.w3.org/2000/svg">
<g id="stamp 5" clip-path="url(#clip0_2842_10016)">
<path id="Vector" d="M26.9585 22.1374C27.4682 21.8925 27.9932 21.6129 28.2192 21.116C28.4452 20.619 28.3125 20.0364 28.1645 19.4864C28.0865 19.1303 27.9922 18.7262 28.0317 18.4639C28.1189 18.1843 28.3834 17.8649 28.6661 17.5945C29.0573 17.1731 29.4475 16.7517 29.4941 16.2119C29.5397 15.6721 29.1992 15.1956 28.8597 14.717C28.654 14.3823 28.4006 14.0639 28.3743 13.7721C28.3479 13.4803 28.5141 13.1149 28.6793 12.7507C28.9053 12.2547 29.1607 11.6915 28.9986 11.1752C28.8354 10.6588 28.3864 10.3323 27.9061 9.99046C27.5747 9.75679 27.2422 9.52413 27.1206 9.26699C26.998 9.01087 27.0325 8.58536 27.0517 8.19352C27.1125 7.62005 27.1419 7.0323 26.8196 6.6027C26.4963 6.17311 25.94 5.9976 25.4008 5.86903C25.0086 5.76801 24.6174 5.66801 24.3985 5.4476C24.213 5.2425 24.1036 4.87107 23.9941 4.49862C23.8462 3.94964 23.6647 3.38536 23.2158 3.05781C22.8003 2.74658 22.2185 2.79862 21.6378 2.85066C21.2335 2.86495 20.8139 2.91189 20.5514 2.79046C20.2889 2.66903 20.0487 2.31903 19.7954 2.00066C19.4873 1.53842 19.1316 1.09454 18.6086 0.933317C18.0695 0.804745 17.5597 1.05168 17.0165 1.28128C16.6658 1.44046 16.3 1.6323 16.0385 1.5925C15.7628 1.58536 15.399 1.3374 15.0666 1.10373C14.6176 0.777194 14.1221 0.46699 13.588 0.501684C13.0397 0.570052 12.6161 0.976174 12.2401 1.36393C11.9573 1.63434 11.6614 1.93842 11.3878 2.01291C11.1151 2.08842 10.7229 1.9874 10.3307 1.88638C9.79258 1.75883 9.21998 1.61495 8.72541 1.82719C8.23085 2.04046 7.98965 2.57005 7.74844 3.09964C7.58224 3.46393 7.41704 3.82924 7.1799 3.99964C6.94275 4.17005 6.53838 4.18536 6.15225 4.2476C5.60397 4.31597 5.02326 4.36801 4.61383 4.74046C4.23885 5.12821 4.17703 5.70168 4.13041 6.24148C4.11116 6.63332 4.07771 7.05883 3.89022 7.29352C3.75138 7.50985 3.38654 7.70168 3.03588 7.86087C2.5251 8.10577 2.00114 8.38434 1.77413 8.8823C1.54712 9.38025 1.68089 9.96189 1.82987 10.5119C1.94034 10.8823 2.03357 11.2874 1.96162 11.5343C1.87446 11.8139 1.60995 12.1333 1.32821 12.4037C0.937016 12.8252 0.546836 13.2466 0.500217 13.7864C0.454612 14.3262 0.795132 14.8027 1.13464 15.2813C1.34037 15.616 1.59373 15.9343 1.62008 16.2262C1.64643 16.518 1.48023 16.8833 1.31503 17.2476C1.08903 17.7435 0.833644 18.3068 0.995796 18.8231C1.15795 19.3394 1.60792 19.666 2.0883 20.0078C2.4197 20.2415 2.75211 20.4741 2.87373 20.7313C2.99636 20.9874 2.9619 21.4129 2.94264 21.8047C2.88184 22.3782 2.85245 22.966 3.17472 23.3956C3.49802 23.8241 4.0544 24.0007 4.59356 24.1292C4.98577 24.2303 5.37696 24.3303 5.59587 24.5507C5.78133 24.7558 5.89078 25.1272 6.00024 25.4996C6.1482 26.0486 6.32961 26.6129 6.77857 26.9405C7.20929 27.219 7.77581 27.1996 8.35652 27.1476C8.76089 27.1333 9.18046 27.0864 9.44395 27.2078C9.70745 27.3292 9.94561 27.6792 10.199 27.9966C10.4888 28.4109 10.7939 28.7915 11.1881 28.9731L11.3857 29.0639C11.9249 29.1925 12.4347 28.9456 12.9779 28.716C13.3285 28.5568 13.6944 28.3649 13.9559 28.4047C14.2315 28.4119 14.5953 28.6598 14.9278 28.8935C15.3767 29.2201 15.8723 29.5292 16.4064 29.4956C16.9547 29.4272 17.3783 29.0211 17.7543 28.6333C18.037 28.3629 18.333 28.0588 18.6066 27.9843C18.8792 27.9088 19.2714 28.0098 19.6636 28.1109C20.2018 28.2384 20.7744 28.3823 21.2689 28.1701C21.7635 27.9578 22.0047 27.4272 22.2459 26.8976C22.4121 26.5333 22.5773 26.168 22.8145 25.9976C23.0516 25.8272 23.456 25.8119 23.8421 25.7496C24.3904 25.6813 24.9711 25.6292 25.3805 25.2568C25.7555 24.869 25.8173 24.2956 25.8639 23.7558C25.8832 23.3639 25.9166 22.9384 26.1041 22.7037C26.243 22.4874 26.6088 22.2956 26.9595 22.1364L26.9585 22.1374ZM24.0164 19.1537C21.7412 24.1568 15.8399 26.3649 10.8699 24.0741C5.90193 21.7833 3.70679 15.8425 5.98301 10.8384C8.25923 5.83434 14.1606 3.62719 19.1285 5.91801C24.0975 8.20883 26.2916 14.1517 24.0164 19.1537Z" fill="#FFB74D"/>
<g id="Group">
<path id="Vector_2" d="M8.71891 16.7816C8.36725 17.8836 8.82837 19.1326 9.8023 19.752C10.4428 20.1591 11.1532 20.2438 11.8029 20.0908C12.3704 19.9581 12.9572 20.2296 13.245 20.7551C13.5541 21.35 14.0973 21.8438 14.8067 22.0591C15.9094 22.3969 17.1336 21.9255 17.7488 20.9449C18.3711 19.9479 18.2282 18.7336 17.5603 17.8959C16.9958 17.203 16.6816 16.3234 16.6097 15.4193L16.5468 14.7285C16.4313 13.5806 15.129 12.9806 14.2108 13.651L13.6504 14.054C12.9217 14.5836 12.0562 14.9244 11.1674 14.9469C10.0698 14.9714 9.08274 15.6642 8.72398 16.7826L8.71993 16.7806L8.71891 16.7816Z" fill="#FFB74D"/>
<path id="Vector_3" d="M17.7035 13.9232C18.422 14.2548 19.4152 13.6232 19.9199 12.513C20.4246 11.4028 20.2513 10.2334 19.5328 9.90176C18.8143 9.57012 17.8211 10.2018 17.3164 11.312C16.8117 12.4222 16.985 13.5916 17.7035 13.9222V13.9232Z" fill="#FFB74D"/>
<path id="Vector_4" d="M21.98 14.4805C21.4641 13.8826 20.2956 14.0632 19.3876 14.8703C18.4795 15.6775 18.1481 16.8091 18.6822 17.4101C19.2153 18.0111 20.3665 17.8275 21.2756 17.0203C22.1837 16.2132 22.4989 15.0744 21.981 14.4805H21.98Z" fill="#FFB74D"/>
<path id="Vector_5" d="M14.0433 12.2367C14.7619 12.5683 15.7551 11.9367 16.2598 10.8265C16.7645 9.71625 16.5912 8.54687 15.8726 8.21523C15.1541 7.8836 14.1609 8.51523 13.6562 9.62544C13.1515 10.7356 13.3248 11.905 14.0433 12.2356V12.2367Z" fill="#FFB74D"/>
<path id="Vector_6" d="M10.7795 13.7684C11.5659 13.7715 12.2146 12.7909 12.2277 11.5715C12.2409 10.3521 11.6115 9.34699 10.8271 9.33985C10.0407 9.33679 9.39208 10.3174 9.37891 11.5368C9.38093 12.7633 10.0022 13.746 10.7795 13.7684Z" fill="#FFB74D"/>
</g>
</g>
<defs>
<clipPath id="clip0_2842_10016">
<rect width="29" height="29" fill="white" transform="translate(0.5 0.5)"/>
</clipPath>
</defs>
</svg>
