<svg width="24" height="24" viewBox="0 0 22 24" fill="none" xmlns="http://www.w3.org/2000/svg">
<path id="Vector" d="M20.5886 7.22008L13.3972 0.915623C12.738 0.325982 11.8846 0 11.0001 0C10.1156 0 9.2622 0.325982 8.60297 0.915623L1.41157 7.22008C1.03087 7.56056 0.727069 7.97824 0.520403 8.44531C0.313736 8.91237 0.208944 9.41811 0.213004 9.92884V20.4043C0.213004 21.3579 0.591836 22.2725 1.26616 22.9468C1.94048 23.6212 2.85506 24 3.8087 24H18.1915C19.1451 24 20.0597 23.6212 20.734 22.9468C21.4084 22.2725 21.7872 21.3579 21.7872 20.4043V9.91685C21.7895 9.40814 21.6839 8.90471 21.4773 8.43984C21.2707 7.97496 20.9678 7.55922 20.5886 7.22008ZM13.3972 21.6029H8.60297V15.61C8.60297 15.2922 8.72924 14.9873 8.95402 14.7625C9.17879 14.5378 9.48365 14.4115 9.80153 14.4115H12.1987C12.5165 14.4115 12.8214 14.5378 13.0462 14.7625C13.271 14.9873 13.3972 15.2922 13.3972 15.61V21.6029ZM19.3901 20.4043C19.3901 20.7222 19.2638 21.027 19.039 21.2518C18.8142 21.4766 18.5094 21.6029 18.1915 21.6029H15.7944V15.61C15.7944 14.6564 15.4155 13.7418 14.7412 13.0675C14.0669 12.3932 13.1523 12.0143 12.1987 12.0143H9.80153C8.84789 12.0143 7.93331 12.3932 7.25899 13.0675C6.58466 13.7418 6.20583 14.6564 6.20583 15.61V21.6029H3.8087C3.49082 21.6029 3.18596 21.4766 2.96119 21.2518C2.73641 21.027 2.61014 20.7222 2.61014 20.4043V9.91685C2.61035 9.74667 2.6468 9.57849 2.71707 9.4235C2.78733 9.2685 2.8898 9.13025 3.01765 9.01793L10.209 2.72546C10.4278 2.5333 10.709 2.42733 11.0001 2.42733C11.2912 2.42733 11.5724 2.5333 11.7912 2.72546L18.9825 9.01793C19.1104 9.13025 19.2129 9.2685 19.2831 9.4235C19.3534 9.57849 19.3898 9.74667 19.3901 9.91685V20.4043Z" fill="current" />
</svg>
