<svg width="24" height="24" viewBox="0 0 24 20" fill="none" xmlns="http://www.w3.org/2000/svg">
<path id="XMLID_426_" d="M21.6565 0.894135L11.9953 0.917664L2.33412 0.870605H2.32941C1.03059 0.870605 0 2.08943 0 3.61414V16.3859C0 17.9106 1.03059 19.1294 2.32941 19.1294H21.6706C22.9694 19.1294 24 17.9106 24 16.3859V3.61414C24 2.08943 22.9788 0.894135 21.6565 0.894135ZM20.8988 2.77649L12.2682 10.6683L12.2353 10.6965L12.2071 10.7294C12.1035 10.8424 11.9812 10.8565 11.9153 10.8565C11.8494 10.8565 11.7271 10.8377 11.6282 10.72L11.6 10.6871L3.35059 2.73884L11.9953 2.79531L20.8988 2.77649ZM21.6706 17.2471H2.32941C2.16471 17.2471 1.88235 16.9365 1.88235 16.3859V3.91531L10.24 11.9906C10.6635 12.4612 11.2612 12.7341 11.8965 12.7435H11.9247C12.5506 12.7435 13.1341 12.4847 13.5624 12.033L22.1271 4.19296V16.3859C22.1176 16.9365 21.8353 17.2471 21.6706 17.2471Z" fill="current"/>
</svg>
