<svg width="24" height="24" viewBox="0 0 20 24" fill="none" xmlns="http://www.w3.org/2000/svg">
<path id="Vector" d="M14.0216 6.0558C14.0216 6.27965 14.0064 6.50349 13.9784 6.72479C13.9911 6.63576 14.0038 6.54419 14.014 6.45516C13.9529 6.89776 13.8359 7.32764 13.6655 7.73971C13.6986 7.65832 13.7342 7.57692 13.7673 7.49552C13.5968 7.89742 13.3781 8.27389 13.111 8.61983L13.2712 8.41379C13.0067 8.75464 12.6989 9.06242 12.3581 9.32697L12.5641 9.16671C12.2182 9.43126 11.8417 9.65256 11.4398 9.82298C11.5212 9.78991 11.6026 9.7543 11.684 9.72124C11.2719 9.89166 10.842 10.0087 10.3994 10.0697C10.4885 10.057 10.58 10.0443 10.6691 10.0341C10.2239 10.0926 9.77624 10.0926 9.33109 10.0341C9.42012 10.0468 9.51169 10.0595 9.60072 10.0697C9.15812 10.0087 8.72824 9.89166 8.31617 9.72124C8.39757 9.7543 8.47896 9.78991 8.56036 9.82298C8.15846 9.65256 7.782 9.4338 7.43606 9.16671L7.6421 9.32697C7.30124 9.06242 6.99346 8.75464 6.72892 8.41379L6.88917 8.61983C6.62463 8.27389 6.40333 7.89742 6.2329 7.49552C6.26597 7.57692 6.30158 7.65832 6.33465 7.73971C6.16422 7.32764 6.04721 6.89776 5.98617 6.45516C5.99888 6.54419 6.0116 6.63576 6.02178 6.72479C5.96327 6.27965 5.96327 5.83196 6.02178 5.38682C6.00906 5.47585 5.99634 5.56742 5.98617 5.65645C6.04721 5.21385 6.16422 4.78397 6.33465 4.37189C6.30158 4.45329 6.26597 4.53469 6.2329 4.61609C6.40333 4.21418 6.62208 3.83772 6.88917 3.49178L6.72892 3.69782C6.99346 3.35697 7.30124 3.04918 7.6421 2.78464L7.43606 2.94489C7.782 2.68035 8.15846 2.45905 8.56036 2.28862C8.47896 2.32169 8.39757 2.3573 8.31617 2.39037C8.72824 2.21995 9.15812 2.10294 9.60072 2.04189C9.51169 2.05461 9.42012 2.06732 9.33109 2.0775C9.77624 2.019 10.2239 2.019 10.6691 2.0775C10.58 2.06478 10.4885 2.05206 10.3994 2.04189C10.842 2.10294 11.2719 2.21995 11.684 2.39037C11.6026 2.3573 11.5212 2.32169 11.4398 2.28862C11.8417 2.45905 12.2182 2.67781 12.5641 2.94489L12.3581 2.78464C12.6989 3.04918 13.0067 3.35697 13.2712 3.69782L13.111 3.49178C13.3755 3.83772 13.5968 4.21418 13.7673 4.61609C13.7342 4.53469 13.6986 4.45329 13.6655 4.37189C13.8359 4.78397 13.9529 5.21385 14.014 5.65645C14.0013 5.56742 13.9886 5.47585 13.9784 5.38682C14.0064 5.60812 14.0191 5.83196 14.0216 6.0558C14.0242 6.58743 14.4871 7.09871 15.0391 7.07327C15.5885 7.04784 16.0591 6.62559 16.0566 6.0558C16.0515 4.83738 15.6852 3.59098 14.9679 2.59895C14.7746 2.33187 14.5685 2.06987 14.3396 1.83331C14.1081 1.5942 13.8537 1.38816 13.5892 1.18721C13.1084 0.820925 12.5717 0.551296 12.002 0.342715C9.70501 -0.499241 6.93496 0.251143 5.38077 2.14364C5.1671 2.40309 4.96361 2.67272 4.79064 2.9627C4.61767 3.25013 4.48286 3.55537 4.35822 3.8657C4.1242 4.44057 4.00464 5.05105 3.95631 5.66917C3.8622 6.87995 4.17761 8.14416 4.80844 9.18198C5.41638 10.1842 6.33465 11.0439 7.40808 11.5298C7.72349 11.6722 8.04654 11.8045 8.3823 11.8986C8.71553 11.9902 9.05383 12.0411 9.39723 12.0818C10.023 12.1555 10.6614 12.1047 11.2795 11.98C13.6274 11.5018 15.5936 9.47959 15.9574 7.10634C16.0108 6.7604 16.0515 6.41446 16.0515 6.06343C16.054 5.53181 15.5809 5.02053 15.034 5.04597C14.4846 5.06377 14.0216 5.48602 14.0216 6.0558ZM17.3971 21.9614H4.3455C3.76808 21.9614 3.19067 21.9665 2.61326 21.9614C2.54966 21.9614 2.48607 21.9563 2.42502 21.9487C2.51405 21.9614 2.60562 21.9741 2.69465 21.9843C2.59291 21.969 2.49625 21.941 2.40213 21.9029C2.48353 21.936 2.56493 21.9716 2.64632 22.0046C2.54458 21.9614 2.45046 21.9054 2.36143 21.8367L2.56747 21.997C2.49116 21.9334 2.41994 21.8647 2.35889 21.7884L2.51914 21.9945C2.45046 21.9054 2.39704 21.8113 2.35126 21.7096C2.38433 21.791 2.41994 21.8724 2.453 21.9538C2.41485 21.8596 2.38941 21.7604 2.37161 21.6612C2.38433 21.7503 2.39704 21.8418 2.40722 21.9309C2.36652 21.6231 2.3945 21.2975 2.3945 20.9872V19.8985C2.3945 19.6263 2.40976 19.3567 2.44537 19.087C2.43265 19.1761 2.41994 19.2676 2.40976 19.3567C2.48098 18.8352 2.61834 18.3239 2.82438 17.8381C2.79131 17.9195 2.7557 18.0009 2.72263 18.0823C2.92104 17.6193 3.17541 17.1844 3.48319 16.785L3.32294 16.9911C3.63072 16.5968 3.9843 16.2407 4.38111 15.9329L4.17507 16.0931C4.57443 15.7854 5.0094 15.531 5.47234 15.3326C5.39095 15.3656 5.30955 15.4013 5.22815 15.4343C5.71399 15.2308 6.22273 15.0909 6.74672 15.0197C6.6577 15.0324 6.56612 15.0451 6.47709 15.0553C6.85356 15.007 7.22748 15.0044 7.60648 15.0044H12.2614C12.6811 15.0044 13.0983 15.0019 13.518 15.0553C13.4289 15.0426 13.3374 15.0299 13.2484 15.0197C13.7698 15.0909 14.2811 15.2283 14.7669 15.4343C14.6855 15.4013 14.6041 15.3656 14.5227 15.3326C14.9857 15.531 15.4206 15.7854 15.82 16.0931L15.614 15.9329C16.0082 16.2407 16.3643 16.5942 16.6721 16.9911L16.5119 16.785C16.8197 17.1844 17.074 17.6193 17.2724 18.0823C17.2394 18.0009 17.2038 17.9195 17.1707 17.8381C17.3742 18.3239 17.5141 18.8327 17.5853 19.3567C17.5726 19.2676 17.5599 19.1761 17.5497 19.087C17.598 19.4711 17.6006 19.8527 17.6006 20.2393V21.4984C17.6006 21.6434 17.6057 21.7884 17.5879 21.9309C17.6006 21.8418 17.6133 21.7503 17.6235 21.6612C17.6082 21.763 17.5802 21.8596 17.5421 21.9538C17.5751 21.8724 17.6107 21.791 17.6438 21.7096C17.6006 21.8113 17.5446 21.9054 17.4759 21.9945L17.6362 21.7884C17.5726 21.8647 17.5039 21.9359 17.4276 21.997L17.6336 21.8367C17.5446 21.9054 17.4505 21.9588 17.3487 22.0046C17.4301 21.9716 17.5115 21.936 17.5929 21.9029C17.4988 21.941 17.3996 21.9665 17.3004 21.9843C17.3894 21.9716 17.481 21.9588 17.57 21.9487C17.5141 21.9563 17.4556 21.9588 17.3971 21.9614C17.1351 21.9639 16.8655 22.0733 16.6772 22.259C16.5017 22.4345 16.3669 22.7245 16.3796 22.9789C16.405 23.5232 16.8273 24.004 17.3971 23.9963C18.3866 23.9811 19.2565 23.335 19.5465 22.3862C19.6609 22.0097 19.6355 21.6053 19.6355 21.2186C19.6355 20.3334 19.6635 19.4559 19.5109 18.5783C19.287 17.2937 18.6409 16.0855 17.7557 15.1367C16.8705 14.1879 15.6801 13.491 14.421 13.1806C13.6986 13.0026 12.9711 12.9746 12.2334 12.9746H7.72095C6.96548 12.9746 6.2151 13.0102 5.47997 13.2061C4.23103 13.5367 3.05585 14.2413 2.18846 15.1978C1.31344 16.1618 0.680065 17.3726 0.474027 18.6648C0.336669 19.5322 0.364649 20.4021 0.364649 21.2771C0.364649 21.679 0.341756 22.0987 0.486746 22.4828C0.674977 22.9763 0.975131 23.3655 1.41519 23.658C1.75858 23.8844 2.19355 23.9938 2.60054 23.9989C2.79894 24.0014 2.99735 23.9989 3.19576 23.9989H17.3996C17.9313 23.9989 18.4425 23.5308 18.4171 22.9814C18.3917 22.4269 17.9694 21.9614 17.3971 21.9614Z" fill="current"/>
</svg>
