<svg width="24" height="24" viewBox="0 0 24 24" fill="none" xmlns="http://www.w3.org/2000/svg">
<path id="Union" fill-rule="evenodd" clip-rule="evenodd" d="M15.6035 17.515H5.51529V17.4979C5.28816 17.4979 5.07034 17.4077 4.90974 17.2471C4.74913 17.0865 4.65891 16.8686 4.65891 16.6415C4.65891 16.4144 4.74913 16.1966 4.90974 16.036C5.07034 15.8754 5.28816 15.7851 5.51529 15.7851H12.1094V14.0039C12.1088 13.8912 12.1304 13.7794 12.173 13.6751C12.2156 13.5707 12.2784 13.4758 12.3578 13.3958L16.7682 8.98545V2.65678C16.7682 2.63634 16.76 2.61674 16.7456 2.60228C16.7311 2.58783 16.7115 2.57971 16.6911 2.57971H1.79002C1.77733 2.57897 1.76464 2.58139 1.75311 2.58675C1.74157 2.59211 1.73154 2.60024 1.72391 2.61041C1.71628 2.62059 1.71129 2.63249 1.70937 2.64506C1.70746 2.65764 1.70869 2.67049 1.71295 2.68248V21.3174C1.71295 21.3378 1.72107 21.3574 1.73552 21.3719C1.74998 21.3863 1.76958 21.3944 1.79002 21.3944H16.6911C16.7115 21.3944 16.7311 21.3863 16.7456 21.3719C16.76 21.3574 16.7682 21.3378 16.7682 21.3174V18.851C16.7682 18.6239 16.8584 18.406 17.019 18.2454C17.1796 18.0848 17.3974 17.9946 17.6245 17.9946C17.8517 17.9946 18.0695 18.0848 18.2301 18.2454C18.3907 18.406 18.4809 18.6239 18.4809 18.851V21.3431C18.4809 21.8178 18.2924 22.273 17.9567 22.6087C17.621 22.9443 17.1658 23.1329 16.6911 23.1329H1.79002C1.5528 23.1329 1.31794 23.0858 1.0991 22.9942C0.880251 22.9027 0.681788 22.7686 0.515246 22.5996C0.348704 22.4307 0.217405 22.2303 0.128983 22.0102C0.0405606 21.7901 -0.0032207 21.5546 0.000184412 21.3174V2.68248C-0.0032207 2.44528 0.0405606 2.20977 0.128983 1.98964C0.217405 1.76951 0.348704 1.56916 0.515246 1.40023C0.681788 1.23129 0.880251 1.09715 1.0991 1.0056C1.31794 0.914052 1.5528 0.866919 1.79002 0.866943H16.6911C17.1628 0.878181 17.611 1.07523 17.9382 1.41524C18.2653 1.75524 18.445 2.21068 18.4381 2.68248V7.29838L19.5685 6.16795C19.7354 5.996 19.935 5.85929 20.1557 5.76593C20.3764 5.67257 20.6135 5.62447 20.8531 5.62447C21.0927 5.62447 21.3299 5.67257 21.5505 5.76593C21.7712 5.85929 21.9708 5.996 22.1377 6.16795L23.4565 7.45253C23.6285 7.61937 23.7652 7.81904 23.8585 8.0397C23.9519 8.26035 24 8.49751 24 8.7371C24 8.9767 23.9519 9.21385 23.8585 9.43451C23.7652 9.65517 23.6285 9.85484 23.4565 10.0217L16.2115 17.2667C16.1315 17.346 16.0366 17.4088 15.9323 17.4515C15.8279 17.4941 15.7162 17.5157 15.6035 17.515ZM18.2069 9.99599L13.8222 14.3807V15.8023H15.2695L22.2661 8.80561V8.70285L20.9216 7.38402C20.9075 7.37138 20.8892 7.36439 20.8702 7.36439C20.8513 7.36439 20.833 7.37138 20.8189 7.38402L18.2497 9.95317L18.2069 9.99599ZM12.9658 7.90146H5.51529C5.28816 7.90146 5.07034 7.80421 4.90974 7.6311C4.74913 7.45799 4.65891 7.2232 4.65891 6.97838C4.65891 6.73357 4.74913 6.49878 4.90974 6.32567C5.07034 6.15256 5.28816 6.05531 5.51529 6.05531H12.9658C13.1929 6.05531 13.4108 6.15256 13.5714 6.32567C13.732 6.49878 13.8222 6.73357 13.8222 6.97838C13.8222 7.2232 13.732 7.45799 13.5714 7.6311C13.4108 7.80421 13.1929 7.90146 12.9658 7.90146ZM10.174 12.923H5.51529C5.28816 12.923 5.07034 12.8257 4.90974 12.6526C4.74913 12.4795 4.65891 12.2447 4.65891 11.9999C4.65891 11.7551 4.74913 11.5203 4.90974 11.3472C5.07034 11.1741 5.28816 11.0768 5.51529 11.0768H10.174C10.4011 11.0768 10.619 11.1741 10.7796 11.3472C10.9402 11.5203 11.0304 11.7551 11.0304 11.9999C11.0304 12.2447 10.9402 12.4795 10.7796 12.6526C10.619 12.8257 10.4011 12.923 10.174 12.923Z" fill="current"/>
</svg>
