<svg width="25" height="24" viewBox="0 0 25 24" fill="none" xmlns="http://www.w3.org/2000/svg">
<circle cx="12.5" cy="12" r="12" fill="#FEE500"/>
<path d="M12.5343 5.7915C8.80089 5.7915 5.79004 8.20016 5.79004 11.1243C5.79004 13.0223 7.04255 14.6843 8.92132 15.6333L8.28543 18.0083C8.27344 18.0439 8.2716 18.0821 8.2801 18.1187C8.28861 18.1553 8.30714 18.1888 8.3336 18.2154C8.37219 18.2495 8.42185 18.2683 8.47331 18.2684C8.51597 18.265 8.55645 18.2481 8.58892 18.2202L11.3252 16.3752C11.7291 16.431 12.1362 16.4599 12.544 16.4619C16.2726 16.4619 19.2883 14.0532 19.2883 11.1243C19.2883 8.19534 16.263 5.7915 12.5343 5.7915Z" fill="#392020"/>
<path d="M8.15043 10.281H7.41338C7.32203 10.2837 7.2318 10.2603 7.15324 10.2136C7.11836 10.1917 7.08838 10.1629 7.06517 10.1289C7.04195 10.0949 7.02602 10.0565 7.01836 10.0161C7.01602 9.99042 7.01602 9.96467 7.01836 9.93903C7.01607 9.89105 7.02538 9.84321 7.04551 9.7996C7.06563 9.75599 7.09598 9.7179 7.13397 9.68852C7.21796 9.62769 7.31933 9.59556 7.42301 9.59696H9.64381C9.73589 9.59372 9.82673 9.61897 9.90395 9.66923C9.93965 9.69011 9.97027 9.71869 9.9936 9.75285C10.0169 9.78701 10.0324 9.8259 10.0388 9.86676C10.0412 9.89079 10.0412 9.915 10.0388 9.93903C10.0411 9.98769 10.0318 10.0362 10.0117 10.0806C9.99162 10.125 9.9613 10.1639 9.92322 10.1943C9.84128 10.2551 9.74089 10.2857 9.639 10.281H8.92603V12.815C8.92893 12.869 8.92057 12.9229 8.9015 12.9735C8.88242 13.0241 8.85305 13.0702 8.81523 13.1088C8.77897 13.1458 8.73537 13.1747 8.68725 13.1938C8.63913 13.2129 8.58755 13.2217 8.53582 13.2196C8.44535 13.2222 8.3568 13.1933 8.28532 13.1378C8.21727 13.0835 8.17109 13.0065 8.15525 12.9209C8.15049 12.8858 8.15049 12.8501 8.15525 12.815L8.15043 10.281Z" fill="#FEE500"/>
<path d="M10.2514 9.78514C10.2726 9.70586 10.3223 9.63722 10.3911 9.59243C10.4643 9.55091 10.5478 9.53087 10.6319 9.53462H10.815C10.9043 9.53143 10.9927 9.55311 11.0703 9.59725C11.1526 9.65259 11.2111 9.73685 11.2341 9.8333L12.1976 12.5551C12.2226 12.6261 12.2435 12.6985 12.2602 12.7719C12.2619 12.8024 12.2619 12.8329 12.2602 12.8634C12.2618 12.9104 12.2532 12.9571 12.2349 13.0004C12.2166 13.0437 12.1891 13.0824 12.1542 13.1139C12.1205 13.1485 12.08 13.1758 12.0352 13.194C11.9904 13.2123 11.9424 13.2211 11.8941 13.2199C11.8198 13.2273 11.7452 13.2095 11.6822 13.1693C11.6193 13.1291 11.5718 13.0689 11.5472 12.9983L11.3449 12.4058H10.0779L9.87562 12.9983C9.85169 13.0703 9.80356 13.1316 9.73943 13.172C9.67531 13.2125 9.59916 13.2294 9.52395 13.2199C9.44249 13.222 9.3627 13.1966 9.29754 13.1476C9.23405 13.0972 9.19121 13.0252 9.1771 12.9454C9.17455 12.9181 9.17455 12.8907 9.1771 12.8634C9.16883 12.8156 9.16883 12.7668 9.1771 12.7189C9.1771 12.666 9.21082 12.6081 9.23009 12.5551L10.2514 9.78514ZM10.7331 10.4162L10.2755 11.8614H11.1859L10.7331 10.4162Z" fill="#FEE500"/>
<path d="M12.3705 9.93928C12.3656 9.83117 12.4037 9.72553 12.4765 9.64543C12.5135 9.60811 12.5579 9.57895 12.6069 9.55987C12.6558 9.54078 12.7083 9.53215 12.7607 9.53458C12.851 9.53353 12.939 9.56234 13.0112 9.6165C13.0782 9.67301 13.1226 9.75161 13.1365 9.83808C13.1412 9.87163 13.1412 9.90573 13.1365 9.93928V12.4732H14.4613C14.5531 12.472 14.6434 12.497 14.7214 12.5454C14.7565 12.5671 14.7866 12.5958 14.8099 12.6299C14.8331 12.6639 14.8489 12.7024 14.8563 12.743C14.8563 12.743 14.8563 12.7911 14.8563 12.8152C14.8586 12.8632 14.8493 12.911 14.8291 12.9546C14.809 12.9982 14.7787 13.0364 14.7407 13.0657C14.6567 13.1266 14.5553 13.1586 14.4516 13.1572H12.8234C12.7197 13.1639 12.6166 13.1369 12.5295 13.0802C12.4516 13.022 12.3997 12.9355 12.385 12.8393C12.3815 12.7864 12.3815 12.7333 12.385 12.6803L12.3705 9.93928Z" fill="#FEE500"/>
<path d="M14.9426 9.93943C14.9397 9.83163 14.9776 9.72672 15.0486 9.64558C15.1208 9.57997 15.2134 9.54123 15.3108 9.53596C15.4082 9.5307 15.5045 9.5592 15.5833 9.61664C15.6517 9.67265 15.6978 9.75122 15.7134 9.83822C15.7158 9.8719 15.7158 9.90575 15.7134 9.93943V11.1197L16.9322 9.71297C16.9792 9.66498 17.029 9.61997 17.0815 9.57813C17.131 9.54866 17.1878 9.5336 17.2453 9.53473C17.3295 9.53427 17.4119 9.55948 17.4814 9.607C17.5141 9.62906 17.5421 9.65751 17.5636 9.69062C17.5851 9.72373 17.5998 9.76082 17.6066 9.79971C17.6086 9.80924 17.6086 9.8191 17.6066 9.82864C17.6043 9.83976 17.6043 9.85121 17.6066 9.86233C17.6065 9.91302 17.5932 9.96283 17.5681 10.0069C17.5425 10.0535 17.5118 10.0971 17.4766 10.1369L16.6769 11.0137L17.6403 12.5071V12.5552C17.6904 12.6243 17.7294 12.7007 17.756 12.7817V12.8057C17.7615 12.8615 17.7535 12.9179 17.7325 12.9699C17.7115 13.0219 17.6783 13.0681 17.6355 13.1044C17.5552 13.1651 17.4568 13.1974 17.3561 13.196C17.2892 13.1987 17.2227 13.1837 17.1634 13.1526C17.0993 13.1095 17.0464 13.0517 17.0093 12.984L16.1132 11.5388L15.6845 11.9868V12.7913C15.6874 12.8991 15.6495 13.004 15.5785 13.0851C15.5404 13.1223 15.4952 13.1514 15.4455 13.1704C15.3958 13.1895 15.3427 13.1982 15.2895 13.196C15.2006 13.1978 15.1138 13.1689 15.0438 13.114C14.9757 13.0598 14.9296 12.9829 14.9137 12.8973C14.909 12.8621 14.909 12.8264 14.9137 12.7913L14.9426 9.93943Z" fill="#FEE500"/>
</svg>
