<svg width="27" height="26" viewBox="0 0 27 26" fill="none" xmlns="http://www.w3.org/2000/svg">
<g id="user-02">
<g id="Icon">
<path d="M13.5 16.25C10.0658 16.25 7.0117 17.9082 5.06733 20.4815C4.64885 21.0353 4.43961 21.3122 4.44645 21.6865C4.45174 21.9756 4.63331 22.3404 4.86081 22.5189C5.15529 22.75 5.56336 22.75 6.3795 22.75H20.6205C21.4366 22.75 21.8447 22.75 22.1392 22.5189C22.3667 22.3404 22.5483 21.9756 22.5536 21.6865C22.5604 21.3122 22.3512 21.0353 21.9327 20.4815C19.9883 17.9082 16.9343 16.25 13.5 16.25Z" stroke="current" stroke-width="1.37" stroke-linecap="round" stroke-linejoin="round"/>
<path d="M13.5 13C16.1924 13 18.375 10.8174 18.375 8.125C18.375 5.43261 16.1924 3.25 13.5 3.25C10.8076 3.25 8.625 5.43261 8.625 8.125C8.625 10.8174 10.8076 13 13.5 13Z" stroke="current" stroke-width="1.37" stroke-linecap="round" stroke-linejoin="round"/>
</g>
</g>
</svg>
