<svg width="28" height="28" viewBox="0 0 28 28" fill="none" xmlns="http://www.w3.org/2000/svg">
<path d="M14.6999 16.3484L11.3799 16.8234L11.8539 13.5024L20.3919 4.96443C20.7693 4.58702 21.2812 4.375 21.8149 4.375C22.3486 4.375 22.8605 4.58702 23.2379 4.96443C23.6153 5.34183 23.8273 5.8537 23.8273 6.38743C23.8273 6.92115 23.6153 7.43302 23.2379 7.81043L14.6999 16.3484Z" stroke="white" stroke-width="1.85257" stroke-linecap="round" stroke-linejoin="round"/>
<path d="M20.4743 16.45V23.1581C20.4743 23.5139 20.333 23.8551 20.0814 24.1068C19.8298 24.3584 19.4885 24.4997 19.1327 24.4997H5.71661C5.36079 24.4997 5.01955 24.3584 4.76795 24.1068C4.51635 23.8551 4.375 23.5139 4.375 23.1581V9.742C4.375 9.38618 4.51635 9.04494 4.76795 8.79334C5.01955 8.54174 5.36079 8.40039 5.71661 8.40039H12.4247" stroke="white" stroke-width="1.85257" stroke-linecap="round" stroke-linejoin="round"/>
</svg>
