<svg width="27" height="26" viewBox="0 0 27 26" fill="none" xmlns="http://www.w3.org/2000/svg">
<g id="mail-01">
<path id="Icon" d="M2.66699 7.5835L11.5123 13.7752C12.2286 14.2766 12.5867 14.5273 12.9763 14.6244C13.3204 14.7102 13.6803 14.7102 14.0244 14.6244C14.4139 14.5273 14.7721 14.2766 15.4883 13.7752L24.3337 7.5835M7.86699 21.6668H19.1337C20.9538 21.6668 21.8639 21.6668 22.5591 21.3126C23.1707 21.001 23.6678 20.5038 23.9794 19.8923C24.3337 19.1971 24.3337 18.287 24.3337 16.4668V9.5335C24.3337 7.71333 24.3337 6.80324 23.9794 6.10803C23.6678 5.4965 23.1707 4.99931 22.5591 4.68772C21.8639 4.3335 20.9538 4.3335 19.1337 4.3335H7.86699C6.04682 4.3335 5.13674 4.3335 4.44152 4.68772C3.83 4.99931 3.33281 5.4965 3.02122 6.10803C2.66699 6.80324 2.66699 7.71333 2.66699 9.5335V16.4668C2.66699 18.287 2.66699 19.1971 3.02122 19.8923C3.33281 20.5038 3.83 21.001 4.44152 21.3126C5.13674 21.6668 6.04682 21.6668 7.86699 21.6668Z" stroke="#BDBDBD" stroke-width="1.37" stroke-linecap="round" stroke-linejoin="round"/>
</g>
</svg>
