<svg width="26" height="26" viewBox="0 0 26 26" fill="none" xmlns="http://www.w3.org/2000/svg">
<path d="M9.75 22.7498V14.7331C9.75 14.1264 9.75 13.823 9.86808 13.5913C9.97194 13.3875 10.1377 13.2217 10.3415 13.1179C10.5732 12.9998 10.8766 12.9998 11.4833 12.9998H14.5167C15.1234 12.9998 15.4268 12.9998 15.6585 13.1179C15.8623 13.2217 16.0281 13.3875 16.1319 13.5913C16.25 13.823 16.25 14.1264 16.25 14.7331V22.7498M11.9358 2.99415L4.58834 8.70887C4.09719 9.09087 3.85161 9.28188 3.6747 9.52108C3.51798 9.73296 3.40123 9.97166 3.3302 10.2255C3.25 10.512 3.25 10.8231 3.25 11.4453V19.2831C3.25 20.4966 3.25 21.1033 3.48615 21.5668C3.69388 21.9745 4.02534 22.3059 4.43302 22.5136C4.8965 22.7498 5.50322 22.7498 6.71667 22.7498H19.2833C20.4968 22.7498 21.1035 22.7498 21.567 22.5136C21.9747 22.3059 22.3061 21.9745 22.5138 21.5668C22.75 21.1033 22.75 20.4966 22.75 19.2831V11.4453C22.75 10.8231 22.75 10.512 22.6698 10.2255C22.5988 9.97166 22.482 9.73296 22.3253 9.52108C22.1484 9.28188 21.9028 9.09087 21.4117 8.70887L14.0642 2.99415C13.6836 2.69813 13.4933 2.55011 13.2831 2.49322C13.0977 2.44302 12.9023 2.44302 12.7169 2.49322C12.5067 2.55011 12.3164 2.69812 11.9358 2.99415Z" stroke="current" stroke-width="1.37" stroke-linecap="round" stroke-linejoin="round"/>
</svg>
