<svg width="27" height="26" viewBox="0 0 27 26" fill="none" xmlns="http://www.w3.org/2000/svg">
<g id="Frame 40089">
<path id="Vector" d="M20.8147 15.3902C20.4636 14.1285 19.7047 13.0158 18.6543 12.2229C17.604 11.4299 16.3202 11.0005 15 11.0005C13.6798 11.0005 12.396 11.4299 11.3456 12.2229C10.2953 13.0158 9.53635 14.1285 9.18527 15.3902L8.34863 18.3969C8.19841 18.9367 8.176 19.5036 8.28314 20.0535C8.39028 20.6033 8.62408 21.1212 8.96631 21.5667C9.30854 22.0123 9.74994 22.3734 10.2561 22.622C10.7623 22.8706 11.3195 23 11.8844 23H18.1156C18.6805 23 19.2377 22.8706 19.7439 22.622C20.25 22.3734 20.6914 22.0123 21.0337 21.5667C21.3759 21.1212 21.6097 20.6033 21.7168 20.0535C21.824 19.5036 21.8016 18.9367 21.6513 18.3969L20.8147 15.3902ZM19.8665 20.6854C19.662 20.9537 19.3974 21.1711 19.0935 21.3204C18.7896 21.4697 18.4547 21.5468 18.1156 21.5455H11.8844C11.5455 21.5455 11.2111 21.4679 10.9074 21.3188C10.6037 21.1696 10.3389 20.9529 10.1335 20.6856C9.92818 20.4182 9.7879 20.1075 9.72361 19.7776C9.65933 19.4477 9.67278 19.1075 9.76292 18.7836L10.5996 15.777C10.8652 14.8222 11.4396 13.9801 12.2345 13.3801C13.0294 12.78 14.0009 12.455 15 12.455C15.9991 12.455 16.9706 12.78 17.7655 13.3801C18.5604 13.9801 19.1347 14.8222 19.4004 15.777L20.2371 18.7836C20.3285 19.1074 20.3426 19.4478 20.2783 19.778C20.214 20.1081 20.073 20.4187 19.8665 20.6854ZM9.96126 12.0146C10.0889 11.2237 9.91962 10.3771 9.48443 9.63004C9.04924 8.88299 8.39416 8.31433 7.63963 8.02848C6.8316 7.72254 6.00743 7.77127 5.31815 8.16561C3.94788 8.94994 3.58728 10.883 4.51447 12.4747C4.94953 13.2218 5.60465 13.7906 6.35918 14.0763C6.69342 14.2054 7.04869 14.2728 7.40741 14.275C7.85431 14.2766 8.29366 14.1607 8.68067 13.9391C9.36954 13.5447 9.82435 12.8613 9.96126 12.0146ZM8.51245 11.7847C8.44688 12.1906 8.24607 12.5083 7.947 12.6795C7.64793 12.8507 7.26996 12.8641 6.88254 12.7175C6.4418 12.5507 6.052 12.2061 5.78488 11.7475C5.27138 10.8657 5.39343 9.80213 6.05172 9.42523C6.21721 9.33214 6.40462 9.28418 6.59489 9.28624C6.77336 9.28807 6.95 9.32222 7.11609 9.38701C7.55683 9.55396 7.94663 9.89844 8.21375 10.3571C8.48086 10.8158 8.58691 11.3229 8.51245 11.7847ZM10.1202 9.00144C10.6411 9.41428 11.236 9.62927 11.8376 9.62922C12.0177 9.62917 12.1974 9.60995 12.3735 9.57191C13.9196 9.2387 14.8571 7.50642 14.4632 5.71037C14.2785 4.86741 13.8293 4.12785 13.1984 3.62783C12.5228 3.0924 11.7226 2.88973 10.9451 3.05735C9.39897 3.39052 8.46151 5.1228 8.8553 6.91885C9.04012 7.76186 9.48934 8.50141 10.1202 9.00144ZM11.2567 4.47865C11.3279 4.46341 11.4007 4.45579 11.4736 4.45592C11.7463 4.45592 12.0268 4.56169 12.2822 4.76414C12.6507 5.05617 12.9161 5.50201 13.0296 6.01958C13.2478 7.01476 12.8046 7.99076 12.0618 8.15084C11.7244 8.22356 11.3601 8.1223 11.0364 7.86563C10.6679 7.57355 10.4025 7.12771 10.289 6.61019C10.0707 5.61473 10.5139 4.63873 11.2567 4.47865ZM24.6818 8.16561C23.9928 7.77127 23.1682 7.72254 22.3603 8.02848C21.6058 8.31424 20.9507 8.88299 20.5156 9.63004C20.0806 10.3771 19.9113 11.2239 20.0388 12.0146C20.1755 12.8613 20.6303 13.5447 21.3194 13.9391C21.7064 14.1607 22.1458 14.2766 22.5927 14.275C22.9514 14.2728 23.3067 14.2054 23.6409 14.0763C24.3954 13.7906 25.0505 13.2218 25.4856 12.4747C26.4127 10.883 26.0521 8.94994 24.6818 8.16561ZM24.2151 11.7475C23.948 12.2061 23.5582 12.5507 23.1174 12.7175C22.7302 12.8643 22.3521 12.8508 22.0531 12.6795C21.754 12.5082 21.5533 12.1906 21.4876 11.7847C21.4131 11.3229 21.5191 10.8159 21.7862 10.3575C22.0534 9.89908 22.4431 9.55436 22.8839 9.38742C23.05 9.32257 23.2266 9.28836 23.4051 9.28647C23.5954 9.2844 23.7828 9.33236 23.9483 9.42546C24.6065 9.80203 24.7287 10.8655 24.2151 11.7475ZM17.6265 9.57191C17.8026 9.60995 17.9822 9.62917 18.1624 9.62922C18.764 9.62922 19.3591 9.41428 19.8798 9.00144C20.5106 8.50146 20.9599 7.76186 21.1447 6.9189C21.5385 5.12285 20.601 3.39057 19.0549 3.0574C18.2775 2.88986 17.4772 3.0924 16.8016 3.62787C16.1707 4.12785 15.7215 4.86745 15.5367 5.71037C15.1429 7.50642 16.0804 9.2387 17.6265 9.57191ZM16.9704 6.01935C17.0838 5.50178 17.3493 5.05576 17.7177 4.76391C17.9732 4.56147 18.2537 4.4557 18.5264 4.4557C18.5993 4.45557 18.672 4.46318 18.7433 4.47842C19.4861 4.63851 19.9292 5.61473 19.711 6.60969C19.5975 7.12725 19.3321 7.57328 18.9637 7.86517C18.64 8.1218 18.276 8.22306 17.9382 8.15039C17.1953 7.99053 16.7522 7.01439 16.9704 6.01935Z" fill="current"/>
</g>
</svg>
