<svg width="15" height="15" viewBox="0 0 15 15" fill="none" xmlns="http://www.w3.org/2000/svg">
<path d="M10.0131 0.512126C10.3412 0.184205 10.7862 0 11.2501 0C11.714 0 12.1589 0.184205 12.4871 0.512126L13.5731 1.59813C13.901 1.92628 14.0852 2.37121 14.0852 2.83513C14.0852 3.29904 13.901 3.74397 13.5731 4.07213L4.9631 12.6821C4.7531 12.8921 4.4931 13.0461 4.2071 13.1271L0.956095 14.0571C0.827418 14.0939 0.691244 14.0956 0.561701 14.062C0.432158 14.0284 0.313965 13.9607 0.219384 13.866C0.124803 13.7714 0.0572802 13.6531 0.0238199 13.5235C-0.00964046 13.3939 -0.00781899 13.2578 0.0290952 13.1291L0.958095 9.87913C1.0391 9.59313 1.1931 9.33213 1.4031 9.12113L10.0131 0.511126V0.512126ZM10.1891 5.33513L8.7501 3.89513L2.4641 10.1821C2.43403 10.2122 2.41202 10.2493 2.4001 10.2901L1.8421 12.2431L3.7951 11.6851C3.8359 11.6732 3.87304 11.6512 3.9031 11.6211L10.1891 5.33513ZM11.4271 1.57213C11.4039 1.54884 11.3763 1.53037 11.3459 1.51777C11.3155 1.50517 11.283 1.49868 11.2501 1.49868C11.2172 1.49868 11.1847 1.50517 11.1543 1.51777C11.1239 1.53037 11.0963 1.54884 11.0731 1.57213L9.8111 2.83513L11.2501 4.27513L12.5131 3.01213C12.5364 2.9889 12.5548 2.96132 12.5675 2.93094C12.5801 2.90057 12.5865 2.86801 12.5865 2.83513C12.5865 2.80224 12.5801 2.76968 12.5675 2.73931C12.5548 2.70894 12.5364 2.68135 12.5131 2.65813L11.4271 1.57213Z" fill="#616161"/>
</svg>
