<svg width="26" height="24" viewBox="0 0 26 24" fill="none" xmlns="http://www.w3.org/2000/svg">
<path d="M19.8719 14.8682C19.457 13.3542 18.5601 12.019 17.3188 11.0675C16.0774 10.1159 14.5603 9.60065 13 9.60065C11.4397 9.60065 9.92254 10.1159 8.68121 11.0675C7.43988 12.019 6.54296 13.3542 6.12805 14.8682L5.13929 18.4762C4.96176 19.124 4.93528 19.8044 5.0619 20.4642C5.18852 21.124 5.46483 21.7454 5.86927 22.2801C6.27372 22.8147 6.79538 23.2481 7.39358 23.5464C7.99178 23.8448 8.65035 24 9.31794 24H16.682C17.3496 24 18.0082 23.8448 18.6064 23.5464C19.2046 23.2481 19.7262 22.8147 20.1307 22.2801C20.5351 21.7454 20.8115 21.124 20.9381 20.4642C21.0647 19.8044 21.0382 19.124 20.8607 18.4762L19.8719 14.8682ZM18.7513 21.2225C18.5097 21.5444 18.1969 21.8053 17.8377 21.9845C17.4786 22.1636 17.0829 22.2561 16.682 22.2546H9.31794C8.91738 22.2546 8.52223 22.1615 8.1633 21.9825C7.80438 21.8035 7.49137 21.5435 7.2487 21.2227C7.00603 20.9019 6.84024 20.529 6.76427 20.1331C6.6883 19.7372 6.70419 19.329 6.81072 18.9403L7.79948 15.3324C8.11347 14.1866 8.79224 13.1762 9.73165 12.4561C10.6711 11.736 11.8192 11.346 13 11.346C14.1808 11.346 15.3289 11.736 16.2683 12.4561C17.2077 13.1762 17.8865 14.1866 18.2005 15.3324L19.1893 18.9403C19.2973 19.3289 19.314 19.7374 19.238 20.1336C19.162 20.5297 18.9953 20.9026 18.7513 21.2227V21.2225ZM7.04512 10.8175C7.19597 9.86849 6.99592 8.85252 6.4816 7.95605C5.96728 7.05958 5.1931 6.3772 4.30138 6.03418C3.34644 5.66705 2.37242 5.72552 1.55781 6.19874C-0.0616001 7.13993 -0.48776 9.45958 0.608011 11.3697C1.12217 12.2661 1.89641 12.9487 2.78812 13.2915C3.18313 13.4465 3.603 13.5273 4.02694 13.53C4.5551 13.5319 5.07432 13.3928 5.53169 13.1269C6.34582 12.6537 6.88333 11.8335 7.04512 10.8175ZM5.33289 10.5417C5.25541 11.0287 5.01808 11.41 4.66464 11.6154C4.31119 11.8208 3.86449 11.8369 3.40664 11.661C2.88576 11.4608 2.42509 11.0474 2.10941 10.497C1.50254 9.43885 1.64678 8.16255 2.42476 7.71028C2.62033 7.59856 2.84183 7.54101 3.06668 7.54349C3.27761 7.54569 3.48636 7.58667 3.68265 7.66441C4.20353 7.86475 4.6642 8.27813 4.97988 8.82852C5.29556 9.37891 5.42089 9.98745 5.33289 10.5417ZM7.23292 7.20172C7.84857 7.69714 8.55161 7.95512 9.26256 7.95507C9.47552 7.955 9.68785 7.93194 9.89592 7.88629C11.7232 7.48644 12.8311 5.4077 12.3656 3.25244C12.1473 2.24089 11.6164 1.35342 10.8708 0.753393C10.0724 0.110878 9.12667 -0.132328 8.20781 0.0688257C6.3806 0.468625 5.27269 2.54736 5.73808 4.70262C5.9565 5.71423 6.4874 6.6017 7.23292 7.20172ZM8.57605 1.77438C8.6603 1.75609 8.74626 1.74695 8.83245 1.74711C9.15474 1.74711 9.48624 1.87403 9.7881 2.11696C10.2236 2.4674 10.5373 3.00241 10.6713 3.62349C10.9292 4.81771 10.4055 5.98891 9.52763 6.18101C9.12878 6.26828 8.69834 6.14676 8.31569 5.83875C7.88021 5.48826 7.56654 4.95325 7.43248 4.33222C7.17451 3.13768 7.69826 1.96648 8.57605 1.77438ZM24.4422 6.19874C23.6279 5.72552 22.6534 5.66705 21.6986 6.03418C20.8069 6.37709 20.0326 7.05958 19.5185 7.95605C19.0043 8.85252 18.8042 9.86871 18.955 10.8175C19.1165 11.8335 19.6539 12.6537 20.4684 13.1269C20.9258 13.3928 21.445 13.5319 21.9731 13.53C22.3971 13.5273 22.817 13.4465 23.212 13.2915C24.1037 12.9487 24.8779 12.2661 25.3921 11.3697C26.4877 9.45958 26.0616 7.13993 24.4422 6.19874ZM23.8906 10.497C23.5749 11.0474 23.1142 11.4608 22.5933 11.661C22.1357 11.8371 21.6889 11.8209 21.3354 11.6154C20.982 11.4099 20.7448 11.0287 20.6672 10.5417C20.5791 9.98745 20.7044 9.37913 21.0201 8.82901C21.3358 8.27889 21.7964 7.86524 22.3173 7.6649C22.5136 7.58709 22.7224 7.54603 22.9333 7.54376C23.1581 7.54128 23.3796 7.59883 23.5752 7.71055C24.3532 8.16244 24.4976 9.43858 23.8906 10.497ZM16.104 7.88629C16.3121 7.93194 16.5245 7.955 16.7374 7.95507C17.4483 7.95507 18.1516 7.69714 18.767 7.20172C19.5126 6.60175 20.0435 5.71423 20.2619 4.70268C20.7273 2.54742 19.6194 0.468679 17.7922 0.0688802C16.8734 -0.132165 15.9276 0.110878 15.1292 0.753448C14.3836 1.35342 13.8527 2.24094 13.6343 3.25244C13.1689 5.4077 14.2768 7.48644 16.104 7.88629ZM15.3287 3.62322C15.4627 3.00214 15.7764 2.46691 16.2119 2.11669C16.5138 1.87376 16.8452 1.74684 17.1675 1.74684C17.2537 1.74668 17.3397 1.75582 17.4239 1.77411C18.3017 1.96621 18.8255 3.13768 18.5676 4.33162C18.4334 4.9527 18.1198 5.48793 17.6844 5.83821C17.3018 6.14616 16.8716 6.26768 16.4724 6.18046C15.5945 5.98864 15.0708 4.81727 15.3287 3.62322Z" fill="#BDBDBD"/>
</svg>
