<svg width="32" height="32" viewBox="0 0 32 32" fill="none" xmlns="http://www.w3.org/2000/svg">
<path d="M22.8719 18.8682C22.457 17.3542 21.5601 16.019 20.3188 15.0675C19.0774 14.1159 17.5603 13.6007 16 13.6007C14.4397 13.6007 12.9225 14.1159 11.6812 15.0675C10.4399 16.019 9.54296 17.3542 9.12805 18.8682L8.13929 22.4762C7.96176 23.124 7.93528 23.8044 8.0619 24.4642C8.18852 25.124 8.46483 25.7454 8.86927 26.2801C9.27372 26.8147 9.79538 27.2481 10.3936 27.5464C10.9918 27.8448 11.6503 28 12.3179 28H19.682C20.3496 28 21.0082 27.8448 21.6064 27.5464C22.2046 27.2481 22.7262 26.8147 23.1307 26.2801C23.5351 25.7454 23.8115 25.124 23.9381 24.4642C24.0647 23.8044 24.0382 23.124 23.8607 22.4762L22.8719 18.8682ZM21.7513 25.2225C21.5097 25.5444 21.1969 25.8053 20.8377 25.9845C20.4786 26.1636 20.0829 26.2561 19.682 26.2546H12.3179C11.9174 26.2546 11.5222 26.1615 11.1633 25.9825C10.8044 25.8035 10.4914 25.5435 10.2487 25.2227C10.006 24.9019 9.84024 24.529 9.76427 24.1331C9.6883 23.7372 9.70419 23.329 9.81072 22.9403L10.7995 19.3324C11.1135 18.1866 11.7922 17.1762 12.7317 16.4561C13.6711 15.736 14.8192 15.346 16 15.346C17.1808 15.346 18.3289 15.736 19.2683 16.4561C20.2077 17.1762 20.8865 18.1866 21.2005 19.3324L22.1893 22.9403C22.2973 23.3289 22.314 23.7374 22.238 24.1336C22.162 24.5297 21.9953 24.9026 21.7513 25.2227V25.2225ZM10.0451 14.8175C10.196 13.8685 9.99592 12.8525 9.4816 11.9561C8.96728 11.0596 8.1931 10.3772 7.30138 10.0342C6.34644 9.66705 5.37242 9.72552 4.55781 10.1987C2.9384 11.1399 2.51224 13.4596 3.60801 15.3697C4.12217 16.2661 4.89641 16.9487 5.78812 17.2915C6.18313 17.4465 6.603 17.5273 7.02694 17.53C7.5551 17.5319 8.07432 17.3928 8.53169 17.1269C9.34582 16.6537 9.88333 15.8335 10.0451 14.8175ZM8.33289 14.5417C8.25541 15.0287 8.01808 15.41 7.66464 15.6154C7.31119 15.8208 6.86449 15.8369 6.40664 15.661C5.88576 15.4608 5.42509 15.0474 5.10941 14.497C4.50254 13.4389 4.64678 12.1626 5.42476 11.7103C5.62033 11.5986 5.84183 11.541 6.06668 11.5435C6.27761 11.5457 6.48636 11.5867 6.68265 11.6644C7.20353 11.8647 7.6642 12.2781 7.97988 12.8285C8.29556 13.3789 8.42089 13.9874 8.33289 14.5417ZM10.2329 11.2017C10.8486 11.6971 11.5516 11.9551 12.2626 11.9551C12.4755 11.955 12.6879 11.9319 12.8959 11.8863C14.7232 11.4864 15.8311 9.4077 15.3656 7.25244C15.1473 6.24089 14.6164 5.35342 13.8708 4.75339C13.0724 4.11088 12.1267 3.86767 11.2078 4.06883C9.3806 4.46862 8.27269 6.54736 8.73808 8.70262C8.9565 9.71423 9.4874 10.6017 10.2329 11.2017ZM11.576 5.77438C11.6603 5.75609 11.7463 5.74695 11.8324 5.74711C12.1547 5.74711 12.4862 5.87403 12.7881 6.11696C13.2236 6.4674 13.5373 7.00241 13.6713 7.62349C13.9292 8.81771 13.4055 9.98891 12.5276 10.181C12.1288 10.2683 11.6983 10.1468 11.3157 9.83875C10.8802 9.48826 10.5665 8.95325 10.4325 8.33222C10.1745 7.13768 10.6983 5.96648 11.576 5.77438ZM27.4422 10.1987C26.6279 9.72552 25.6534 9.66705 24.6986 10.0342C23.8069 10.3771 23.0326 11.0596 22.5185 11.9561C22.0043 12.8525 21.8042 13.8687 21.955 14.8175C22.1165 15.8335 22.6539 16.6537 23.4684 17.1269C23.9258 17.3928 24.445 17.5319 24.9731 17.53C25.3971 17.5273 25.817 17.4465 26.212 17.2915C27.1037 16.9487 27.8779 16.2661 28.3921 15.3697C29.4877 13.4596 29.0616 11.1399 27.4422 10.1987ZM26.8906 14.497C26.5749 15.0474 26.1142 15.4608 25.5933 15.661C25.1357 15.8371 24.6889 15.8209 24.3354 15.6154C23.982 15.4099 23.7448 15.0287 23.6672 14.5417C23.5791 13.9874 23.7044 13.3791 24.0201 12.829C24.3358 12.2789 24.7964 11.8652 25.3173 11.6649C25.5136 11.5871 25.7224 11.546 25.9333 11.5438C26.1581 11.5413 26.3796 11.5988 26.5752 11.7106C27.3532 12.1624 27.4976 13.4386 26.8906 14.497ZM19.104 11.8863C19.3121 11.9319 19.5245 11.955 19.7374 11.9551C20.4483 11.9551 21.1516 11.6971 21.767 11.2017C22.5126 10.6018 23.0435 9.71423 23.2619 8.70268C23.7273 6.54742 22.6194 4.46868 20.7922 4.06888C19.8734 3.86784 18.9276 4.11088 18.1292 4.75345C17.3836 5.35342 16.8527 6.24094 16.6343 7.25244C16.1689 9.4077 17.2768 11.4864 19.104 11.8863ZM18.3287 7.62322C18.4627 7.00214 18.7764 6.46691 19.2119 6.11669C19.5138 5.87376 19.8452 5.74684 20.1675 5.74684C20.2537 5.74668 20.3397 5.75582 20.4239 5.77411C21.3017 5.96621 21.8255 7.13768 21.5676 8.33162C21.4334 8.9527 21.1198 9.48793 20.6844 9.83821C20.3018 10.1462 19.8716 10.2677 19.4724 10.1805C18.5945 9.98864 18.0708 8.81727 18.3287 7.62322Z" fill="#FFB74D"/>
</svg>
