<svg width="34" height="34" viewBox="0 0 34 34" fill="none" xmlns="http://www.w3.org/2000/svg">
<g id="ph:coffee">
<path id="Vector" d="M10.625 7.4375V3.1875C10.625 2.90571 10.7369 2.63546 10.9362 2.4362C11.1355 2.23694 11.4057 2.125 11.6875 2.125C11.9693 2.125 12.2395 2.23694 12.4388 2.4362C12.6381 2.63546 12.75 2.90571 12.75 3.1875V7.4375C12.75 7.71929 12.6381 7.98954 12.4388 8.1888C12.2395 8.38806 11.9693 8.5 11.6875 8.5C11.4057 8.5 11.1355 8.38806 10.9362 8.1888C10.7369 7.98954 10.625 7.71929 10.625 7.4375ZM15.9375 8.5C16.2193 8.5 16.4895 8.38806 16.6888 8.1888C16.8881 7.98954 17 7.71929 17 7.4375V3.1875C17 2.90571 16.8881 2.63546 16.6888 2.4362C16.4895 2.23694 16.2193 2.125 15.9375 2.125C15.6557 2.125 15.3855 2.23694 15.1862 2.4362C14.9869 2.63546 14.875 2.90571 14.875 3.1875V7.4375C14.875 7.71929 14.9869 7.98954 15.1862 8.1888C15.3855 8.38806 15.6557 8.5 15.9375 8.5ZM20.1875 8.5C20.4693 8.5 20.7395 8.38806 20.9388 8.1888C21.1381 7.98954 21.25 7.71929 21.25 7.4375V3.1875C21.25 2.90571 21.1381 2.63546 20.9388 2.4362C20.7395 2.23694 20.4693 2.125 20.1875 2.125C19.9057 2.125 19.6355 2.23694 19.4362 2.4362C19.2369 2.63546 19.125 2.90571 19.125 3.1875V7.4375C19.125 7.71929 19.2369 7.98954 19.4362 8.1888C19.6355 8.38806 19.9057 8.5 20.1875 8.5ZM32.9375 15.9375V17C32.9371 18.3514 32.4216 19.6519 31.4961 20.6367C30.5706 21.6214 29.3045 22.2164 27.9557 22.3005C27.2309 24.3506 25.997 26.1828 24.3698 27.625H27.625C27.9068 27.625 28.177 27.7369 28.3763 27.9362C28.5756 28.1355 28.6875 28.4057 28.6875 28.6875C28.6875 28.9693 28.5756 29.2395 28.3763 29.4388C28.177 29.6381 27.9068 29.75 27.625 29.75H4.25C3.96821 29.75 3.69796 29.6381 3.4987 29.4388C3.29944 29.2395 3.1875 28.9693 3.1875 28.6875C3.1875 28.4057 3.29944 28.1355 3.4987 27.9362C3.69796 27.7369 3.96821 27.625 4.25 27.625H7.50922C6.1536 26.4273 5.06746 24.9558 4.32249 23.3074C3.57752 21.659 3.19068 19.8714 3.1875 18.0625V11.6875C3.1875 11.4057 3.29944 11.1355 3.4987 10.9362C3.69796 10.7369 3.96821 10.625 4.25 10.625H27.625C29.034 10.625 30.3852 11.1847 31.3815 12.181C32.3778 13.1773 32.9375 14.5285 32.9375 15.9375ZM26.5625 12.75H5.3125V18.0625C5.3166 20.0574 5.88037 22.0112 6.93972 23.7017C7.99907 25.3921 9.51148 26.7514 11.305 27.625H20.57C22.3635 26.7514 23.8759 25.3921 24.9353 23.7017C25.9946 22.0112 26.5584 20.0574 26.5625 18.0625V12.75ZM30.8125 15.9375C30.8123 15.2785 30.6078 14.6358 30.2273 14.0978C29.8467 13.5598 29.3088 13.1529 28.6875 12.9333V18.0625C28.6867 18.7297 28.6334 19.3958 28.5281 20.0547C29.1874 19.8599 29.766 19.4573 30.1777 18.9068C30.5893 18.3563 30.812 17.6874 30.8125 17V15.9375Z" fill="#FFB74D"/>
</g>
</svg>
