<svg width="22" height="22" viewBox="0 0 22 22" fill="none" xmlns="http://www.w3.org/2000/svg">
<g id="ph:x-bold">
<path id="Vector" d="M17.4834 16.068C17.6712 16.2558 17.7767 16.5105 17.7767 16.776C17.7767 17.0416 17.6712 17.2963 17.4834 17.4841C17.2956 17.6718 17.0409 17.7773 16.7753 17.7773C16.5097 17.7773 16.255 17.6718 16.0672 17.4841L10.7783 12.1938L5.48776 17.4824C5.29997 17.6702 5.04527 17.7757 4.77969 17.7757C4.51411 17.7757 4.25941 17.6702 4.07161 17.4824C3.88382 17.2946 3.77832 17.0399 3.77832 16.7744C3.77832 16.5088 3.88382 16.2541 4.07161 16.0663L9.36217 10.7778L4.07328 5.48752C3.88549 5.29973 3.77999 5.04505 3.77999 4.77948C3.77999 4.51392 3.88549 4.25923 4.07328 4.07145C4.26107 3.88367 4.51577 3.77818 4.78135 3.77818C5.04693 3.77818 5.30163 3.88367 5.48943 4.07145L10.7783 9.3617L16.0689 4.07062C16.2567 3.88284 16.5114 3.77734 16.777 3.77734C17.0425 3.77734 17.2972 3.88284 17.485 4.07062C17.6728 4.2584 17.7783 4.51309 17.7783 4.77865C17.7783 5.04421 17.6728 5.2989 17.485 5.48668L12.1945 10.7778L17.4834 16.068Z" fill="#424242"/>
</g>
</svg>
