<svg width="17" height="16" viewBox="0 0 17 16" fill="none" xmlns="http://www.w3.org/2000/svg">
<g id="Phone">
<path id="Vector" d="M10.3019 13.9079L10.3092 13.913C10.9388 14.3139 11.6864 14.488 12.4284 14.4065C13.1704 14.325 13.8623 13.9928 14.3899 13.4648L14.8483 13.0065C14.9499 12.905 15.0304 12.7844 15.0854 12.6518C15.1404 12.5191 15.1687 12.3769 15.1687 12.2333C15.1687 12.0897 15.1404 11.9475 15.0854 11.8149C15.0304 11.6822 14.9499 11.5617 14.8483 11.4602L12.915 9.52838C12.8135 9.42681 12.693 9.34623 12.5603 9.29126C12.4277 9.23628 12.2855 9.20799 12.1419 9.20799C11.9983 9.20799 11.8561 9.23628 11.7234 9.29126C11.5908 9.34623 11.4702 9.42681 11.3687 9.52838C11.1638 9.7333 10.8858 9.84841 10.5959 9.84841C10.3061 9.84841 10.0281 9.7333 9.82315 9.52838L6.73199 6.43649C6.52708 6.23151 6.41196 5.95354 6.41196 5.6637C6.41196 5.37386 6.52708 5.09589 6.73199 4.89091C6.83357 4.7894 6.91414 4.66887 6.96912 4.53621C7.02409 4.40355 7.05239 4.26136 7.05239 4.11775C7.05239 3.97415 7.02409 3.83196 6.96912 3.6993C6.91414 3.56664 6.83357 3.44611 6.73199 3.3446L4.79947 1.41281C4.59449 1.20789 4.31652 1.09277 4.02668 1.09277C3.73684 1.09277 3.45887 1.20789 3.25389 1.41281L2.7948 1.87116C2.26692 2.39887 1.93488 3.09089 1.85352 3.83286C1.77217 4.57483 1.94639 5.32235 2.34738 5.9519L2.35175 5.95919C4.4695 9.09246 7.16825 11.7907 10.3019 13.9079V13.9079Z" stroke="#FFB74D" stroke-width="2" stroke-linecap="round" stroke-linejoin="round"/>
</g>
</svg>
