<svg width="26" height="26" viewBox="0 0 26 26" fill="none" xmlns="http://www.w3.org/2000/svg">
<circle cx="13" cy="13" r="13" fill="#BDBDBD"/>
<path d="M17.1257 16.2246C17.2452 16.3441 17.3123 16.5062 17.3123 16.6752C17.3123 16.8442 17.2452 17.0063 17.1257 17.1258C17.0062 17.2453 16.8441 17.3124 16.6751 17.3124C16.5061 17.3124 16.344 17.2453 16.2245 17.1258L12.8588 13.7593L9.49212 17.1247C9.37262 17.2442 9.21054 17.3114 9.04153 17.3114C8.87253 17.3114 8.71044 17.2442 8.59094 17.1247C8.47143 17.0052 8.4043 16.8432 8.4043 16.6742C8.4043 16.5052 8.47143 16.3431 8.59094 16.2236L11.9577 12.8581L8.592 9.49161C8.47249 9.37211 8.40536 9.21004 8.40536 9.04105C8.40536 8.87205 8.47249 8.70998 8.592 8.59048C8.7115 8.47098 8.87359 8.40385 9.04259 8.40385C9.2116 8.40385 9.37368 8.47098 9.49318 8.59048L12.8588 11.957L16.2256 8.58995C16.3451 8.47045 16.5071 8.40332 16.6762 8.40332C16.8452 8.40332 17.0072 8.47045 17.1267 8.58995C17.2462 8.70945 17.3134 8.87152 17.3134 9.04052C17.3134 9.20951 17.2462 9.37158 17.1267 9.49108L13.76 12.8581L17.1257 16.2246Z" fill="#424242"/>
</svg>
