<svg width="15" height="14" viewBox="0 0 15 14" fill="none" xmlns="http://www.w3.org/2000/svg">
<g id="Group 316">
<path id="Vector" d="M7.53483 0.791992C3.80138 0.791992 0.790527 3.20064 0.790527 6.12478C0.790527 8.02282 2.04304 9.6848 3.92181 10.6338L3.28592 13.0088C3.27393 13.0444 3.27208 13.0826 3.28059 13.1192C3.2891 13.1558 3.30762 13.1893 3.33409 13.2159C3.37268 13.2499 3.42234 13.2688 3.47379 13.2689C3.51646 13.2655 3.55694 13.2486 3.58941 13.2207L6.32567 11.3757C6.72958 11.4315 7.13673 11.4604 7.54446 11.4624C11.2731 11.4624 14.2888 9.05373 14.2888 6.12478C14.2888 3.19583 11.2635 0.791992 7.53483 0.791992Z" fill="#392020"/>
<path id="Vector_2" d="M3.15092 5.28202H2.41387C2.32251 5.28467 2.23229 5.26127 2.15373 5.21457C2.11885 5.19272 2.08887 5.16388 2.06565 5.12989C2.04244 5.0959 2.02651 5.05748 2.01885 5.01704C2.0165 4.9914 2.0165 4.96564 2.01885 4.94C2.01656 4.89203 2.02587 4.84418 2.046 4.80058C2.06612 4.75697 2.09647 4.71888 2.13446 4.68949C2.21845 4.62867 2.31981 4.59654 2.4235 4.59793H4.6443C4.73638 4.5947 4.82722 4.61994 4.90444 4.6702C4.94014 4.69109 4.97076 4.71967 4.99409 4.75383C5.01741 4.78798 5.03286 4.82688 5.03933 4.86773C5.04168 4.89176 5.04168 4.91598 5.03933 4.94C5.0416 4.98867 5.03231 5.03717 5.01221 5.08155C4.99211 5.12593 4.96178 5.16488 4.92371 5.19528C4.84177 5.25603 4.74138 5.28668 4.63948 5.28202H3.92652V7.81595C3.92941 7.86994 3.92106 7.92391 3.90198 7.97449C3.88291 8.02508 3.85353 8.07117 3.81572 8.1098C3.77945 8.14675 3.73586 8.1757 3.68774 8.19478C3.63962 8.21386 3.58804 8.22265 3.53631 8.22059C3.44584 8.22317 3.35728 8.19426 3.28581 8.13874C3.21776 8.0845 3.17158 8.00749 3.15574 7.92192C3.15098 7.88675 3.15098 7.85112 3.15574 7.81595L3.15092 5.28202Z" fill="#FEE500"/>
<path id="Vector_3" d="M5.25186 4.78514C5.27305 4.70586 5.32281 4.63722 5.39157 4.59243C5.46483 4.55091 5.54831 4.53087 5.63243 4.53462H5.81549C5.90476 4.53143 5.99316 4.55311 6.07081 4.59725C6.1531 4.65259 6.21157 4.73685 6.2346 4.8333L7.19807 7.55512C7.22305 7.62613 7.24396 7.69854 7.2607 7.77193C7.26235 7.80242 7.26235 7.83295 7.2607 7.86343C7.26233 7.91039 7.25369 7.95713 7.23538 8.00039C7.21708 8.04366 7.18955 8.08242 7.15472 8.11395C7.12097 8.14854 7.08045 8.1758 7.03569 8.19404C6.99093 8.21227 6.94289 8.22107 6.89458 8.21991C6.82028 8.2273 6.74565 8.20948 6.68273 8.16928C6.61981 8.12908 6.57225 8.06886 6.54773 7.99833L6.3454 7.40581H5.07844L4.87611 7.99833C4.85218 8.07025 4.80405 8.13164 4.73992 8.17205C4.6758 8.21245 4.59964 8.22936 4.52444 8.21991C4.44298 8.22205 4.36319 8.19657 4.29802 8.14764C4.23454 8.09715 4.1917 8.02523 4.17759 7.94535C4.17504 7.91811 4.17504 7.89067 4.17759 7.86343C4.16932 7.81562 4.16932 7.76677 4.17759 7.71895C4.17759 7.66596 4.21131 7.60811 4.23058 7.55512L5.25186 4.78514ZM5.7336 5.41624L5.27595 6.86145H6.18643L5.7336 5.41624Z" fill="#FEE500"/>
<path id="Vector_4" d="M7.37102 4.94026C7.36613 4.83215 7.40423 4.72651 7.477 4.64641C7.514 4.60909 7.55841 4.57993 7.60737 4.56084C7.65633 4.54176 7.70874 4.53313 7.76123 4.53556C7.85147 4.5345 7.93954 4.56332 8.01173 4.61747C8.07864 4.67398 8.12308 4.75258 8.13698 4.83905C8.14173 4.87261 8.14173 4.9067 8.13698 4.94026V7.47419H9.46176C9.55358 7.47299 9.64384 7.49802 9.72189 7.54641C9.75697 7.56803 9.7871 7.59682 9.81034 7.63085C9.83358 7.66488 9.8494 7.70339 9.85678 7.74393C9.85678 7.74393 9.85678 7.79212 9.85678 7.81621C9.85907 7.86418 9.84976 7.91197 9.82963 7.95557C9.8095 7.99918 9.77916 8.03733 9.74116 8.06672C9.65718 8.12754 9.55581 8.15961 9.45212 8.15822H7.82385C7.72015 8.16489 7.61707 8.1379 7.52999 8.08118C7.45211 8.02294 7.40021 7.93645 7.38548 7.84032C7.38195 7.78738 7.38195 7.73424 7.38548 7.68131L7.37102 4.94026Z" fill="#FEE500"/>
<path id="Vector_5" d="M9.94361 4.93992C9.94072 4.83212 9.97856 4.7272 10.0496 4.64606C10.1218 4.58046 10.2144 4.54172 10.3118 4.53645C10.4092 4.53118 10.5055 4.55969 10.5843 4.61713C10.6527 4.67314 10.6988 4.75171 10.7144 4.83871C10.7168 4.87239 10.7168 4.90624 10.7144 4.93992V6.12014L11.9332 4.71346C11.9801 4.66547 12.03 4.62046 12.0825 4.57861C12.132 4.54915 12.1887 4.53409 12.2463 4.53522C12.3305 4.53476 12.4128 4.55997 12.4824 4.60749C12.5151 4.62954 12.5431 4.658 12.5646 4.69111C12.5861 4.72422 12.6007 4.76131 12.6076 4.80019C12.6096 4.80973 12.6096 4.81959 12.6076 4.82913C12.6053 4.84024 12.6053 4.8517 12.6076 4.86282C12.6074 4.91351 12.5942 4.96332 12.5691 5.00737C12.5435 5.054 12.5128 5.09758 12.4775 5.13738L11.6779 6.01418L12.6413 7.50754V7.55571C12.6913 7.62474 12.7304 7.70117 12.7569 7.78217V7.80622C12.7625 7.86203 12.7545 7.91838 12.7335 7.9704C12.7125 8.02242 12.6792 8.06856 12.6365 8.10489C12.5561 8.16563 12.4578 8.19787 12.3571 8.19645C12.2902 8.19921 12.2237 8.18421 12.1644 8.15305C12.1002 8.11003 12.0474 8.05221 12.0103 7.98446L11.1142 6.53925L10.6855 6.98729V7.79175C10.6884 7.89955 10.6505 8.00446 10.5795 8.0856C10.5414 8.12281 10.4961 8.15188 10.4464 8.17093C10.3967 8.18999 10.3436 8.19868 10.2905 8.19645C10.2016 8.19831 10.1148 8.16936 10.0448 8.11454C9.97672 8.0603 9.93054 7.98335 9.9147 7.89778C9.90994 7.86261 9.90994 7.82692 9.9147 7.79175L9.94361 4.93992Z" fill="#FEE500"/>
</g>
</svg>
