<svg width="55" height="55" viewBox="0 0 55 55" fill="none" xmlns="http://www.w3.org/2000/svg">
<path d="M46.8125 27.4062C46.8125 27.63 46.7236 27.8446 46.5654 28.0029C46.4071 28.1611 46.1925 28.25 45.9688 28.25H28.25V45.9688C28.25 46.1925 28.1611 46.4071 28.0029 46.5654C27.8446 46.7236 27.63 46.8125 27.4062 46.8125C27.1825 46.8125 26.9679 46.7236 26.8096 46.5654C26.6514 46.4071 26.5625 46.1925 26.5625 45.9688V28.25H8.84375C8.61997 28.25 8.40536 28.1611 8.24713 28.0029C8.0889 27.8446 8 27.63 8 27.4062C8 27.1825 8.0889 26.9679 8.24713 26.8096C8.40536 26.6514 8.61997 26.5625 8.84375 26.5625H26.5625V8.84375C26.5625 8.61997 26.6514 8.40536 26.8096 8.24713C26.9679 8.0889 27.1825 8 27.4062 8C27.63 8 27.8446 8.0889 28.0029 8.24713C28.1611 8.40536 28.25 8.61997 28.25 8.84375V26.5625H45.9688C46.1925 26.5625 46.4071 26.6514 46.5654 26.8096C46.7236 26.9679 46.8125 27.1825 46.8125 27.4062Z" fill="#616161"/>
</svg>
