<svg width="28" height="29" viewBox="0 0 28 29" fill="none" xmlns="http://www.w3.org/2000/svg">
<path d="M14.8009 17.004L10.3633 17.6388L10.9969 13.2L22.409 1.78784C22.9135 1.2834 23.5977 1 24.3111 1C25.0244 1 25.7086 1.2834 26.2131 1.78784C26.7175 2.29229 27.0009 2.97647 27.0009 3.68987C27.0009 4.40326 26.7175 5.08744 26.2131 5.59189L14.8009 17.004Z" stroke="#BDBDBD" stroke-width="2" stroke-linecap="round" stroke-linejoin="round"/>
<path d="M22.5188 17.1403V26.1064C22.5188 26.582 22.3299 27.0381 21.9936 27.3744C21.6573 27.7107 21.2012 27.8997 20.7256 27.8997H2.79323C2.31764 27.8997 1.86152 27.7107 1.52523 27.3744C1.18893 27.0381 1 26.582 1 26.1064V8.17409C1 7.6985 1.18893 7.24238 1.52523 6.90609C1.86152 6.56979 2.31764 6.38086 2.79323 6.38086H11.7594" stroke="#BDBDBD" stroke-width="2" stroke-linecap="round" stroke-linejoin="round"/>
</svg>
