<svg width="32" height="32" viewBox="0 0 32 32" fill="none" xmlns="http://www.w3.org/2000/svg">
<path d="M16.8002 18.6839L13.0059 19.2267L13.5476 15.4313L23.3053 5.67363C23.7366 5.24231 24.3216 5 24.9316 5C25.5416 5 26.1266 5.24231 26.5579 5.67363C26.9892 6.10495 27.2315 6.68994 27.2315 7.29992C27.2315 7.90989 26.9892 8.49488 26.5579 8.9262L16.8002 18.6839Z" stroke="#FFB74D" stroke-width="1.85257" stroke-linecap="round" stroke-linejoin="round"/>
<path d="M23.3992 18.8002V26.4665C23.3992 26.8732 23.2377 27.2632 22.9501 27.5507C22.6626 27.8383 22.2726 27.9998 21.8659 27.9998H6.53327C6.12662 27.9998 5.73663 27.8383 5.44908 27.5507C5.16154 27.2632 5 26.8732 5 26.4665V11.1339C5 10.7272 5.16154 10.3372 5.44908 10.0497C5.73663 9.76213 6.12662 9.60059 6.53327 9.60059H14.1996" stroke="#FFB74D" stroke-width="1.85257" stroke-linecap="round" stroke-linejoin="round"/>
</svg>
